<?xml version="1.0" encoding="UTF-8"?>
<svg id="Layer_1" data-name="Layer 1" xmlns="http://www.w3.org/2000/svg" xmlns:xlink="http://www.w3.org/1999/xlink" viewBox="0 0 540 560.51">
  <defs>
    <style>
      .cls-1 {
        fill: #333;
      }

      .cls-2 {
        fill: #ccc;
      }

      .cls-3 {
        fill: #1a1a1a;
      }

      .cls-4 {
        fill: url(#linear-gradient);
      }
    </style>
    <linearGradient id="linear-gradient" x1="98.36" y1="157.23" x2="441.64" y2="157.23" gradientUnits="userSpaceOnUse">
      <stop offset="0" stop-color="#51a04d"/>
      <stop offset="1" stop-color="#b2cf42"/>
    </linearGradient>
  </defs>
  <circle class="cls-2" cx="270" cy="280.26" r="256.57"/>
  <g>
    <rect class="cls-1" x="215.05" y="329.38" width="21.54" height="93.89"/>
    <rect class="cls-1" x="310.43" y="329.38" width="21.52" height="93.89"/>
    <path class="cls-4" d="m441.64,137.24l-25.67,39.98h-25.27l25.64-39.98h25.3Zm-120.64,0l-25.65,39.98h25.24l25.68-39.98h-25.27Zm-101.12,0h-26.14l27.28,39.98h26.19l-27.33-39.98Zm-95.37,0h-26.15l27.26,39.98h26.25l-27.36-39.98Z"/>
    <polygon class="cls-3" points="320.59 177.22 295.35 177.22 280.37 200.57 293.39 219.58 320.59 177.22"/>
    <polygon class="cls-3" points="321.27 285.45 285.07 232.55 272.05 213.54 247.21 177.22 221.02 177.22 259.33 233.39 251.01 246.35 225.94 285.45 151.87 177.22 125.62 177.22 214.73 307.85 236.72 307.85 264.01 265.37 272.31 252.43 310.11 307.85 332.07 307.85 415.97 177.22 390.7 177.22 321.27 285.45"/>
  </g>
</svg>