<?xml version="1.0" encoding="UTF-8"?>
<svg id="Layer_1" data-name="Layer 1" xmlns="http://www.w3.org/2000/svg" xmlns:xlink="http://www.w3.org/1999/xlink" viewBox="0 0 558.43 371.23">
  <defs>
    <style>
      .cls-1 {
        fill: url(#linear-gradient-2);
      }

      .cls-2 {
        fill: #8e8e8e;
        fill-rule: evenodd;
      }

      .cls-3 {
        fill: blue;
      }

      .cls-4 {
        fill: #333;
      }

      .cls-5 {
        fill: url(#linear-gradient-5);
      }

      .cls-6 {
        fill: none;
      }

      .cls-7 {
        fill: url(#linear-gradient-3);
      }

      .cls-8 {
        fill: #1a1a1a;
      }

      .cls-9 {
        fill: url(#linear-gradient);
      }

      .cls-10 {
        fill: url(#linear-gradient-4);
      }
    </style>
    <linearGradient id="linear-gradient" x1="10.59" y1="143.21" x2="160.9" y2="143.21" gradientUnits="userSpaceOnUse">
      <stop offset="0" stop-color="#51a04d"/>
      <stop offset="1" stop-color="#b2cf42"/>
    </linearGradient>
    <linearGradient id="linear-gradient-2" x1="514.09" y1="148.58" x2="547.84" y2="148.58" gradientUnits="userSpaceOnUse">
      <stop offset="0" stop-color="#51a04d"/>
      <stop offset="1" stop-color="#b2cf42"/>
    </linearGradient>
    <linearGradient id="linear-gradient-3" x1="506.13" y1="197.79" x2="539.88" y2="197.79" gradientUnits="userSpaceOnUse">
      <stop offset="0" stop-color="#b2cf42"/>
      <stop offset="1" stop-color="#51a04d"/>
    </linearGradient>
    <linearGradient id="linear-gradient-4" x1="452.76" y1="148.74" x2="486.51" y2="148.74" xlink:href="#linear-gradient-2"/>
    <linearGradient id="linear-gradient-5" x1="444.77" y1="197.99" x2="478.55" y2="197.99" xlink:href="#linear-gradient-3"/>
  </defs>
  <g>
    <path class="cls-2" d="m435.66,253.53c-25.84,55.59-82.39,94.24-147.85,94.24-45.39,0-86.5-18.57-116.07-48.47-.11-.22-.25-.47-.45-.85q.09-.09.18-.27,1.11.55,2.21,1.01.37-.09.83-.09t1.02.09q.27-.46.37-1.01-.37-.83-.74-1.56-.28-.55-.74-1.29-.74-.55-1.57-1.1-.37-.46-.83-.92.46,0,.83-.09.74.55,1.29,1.1.93.46,1.66.83.56-.09,1.2-.28.37-.82.74-1.83-.28-1.01-.46-1.93-.28-.73-.46-1.38.18-.36.37-.82s.55.92.64,1.1c0,.18.37,1.29.37,1.29q.46.18.92.45-.09-.64-.27-1.28.27-.28.55-.74-.28-1.19-.37-2.38.92-.18,1.75-.37-.64-3.03-1.2-6.15,1.76-1.01,3.51-2.2,1.29.18,2.49.37.18-.37.55-.65,1.2.19,2.58.37-.18-1.83-.46-3.76.74-.46,1.38-1.1-.09-2.21-.09-4.41.46-.73.83-1.56-1.01-4.04-2.12-8.26,1.29-.27,2.49-.64.18-.74.37-1.65.46-1.29.83-2.76c.32-.46.54-.78.72-1.05h-49.9c.24.4.53.89.96,1.6q.74.55,1.39,1.11,1.1,1.28,2.21,2.47.55.92,1.1,1.93.46,1.01.93,2.2.64,1.29,1.19,2.39.47,1.56.93,3.12-.28.37-.56.55.28.64.46,1.19.46.46,1.02,1.11.27.91.64,2.11-.27.09-.46.18.28.83.56,1.65.36.74.64,1.47h-.55c.18.4.31.66.41.88-5.23-7.55-9.84-15.56-13.75-23.96h-11.1c8.7,20.14,21.04,38.25,36.7,53.83,15.89,15.81,34.4,28.23,55,36.91,21.33,8.98,43.99,13.54,67.33,13.54,46.19,0,89.62-17.92,122.29-50.45,15.64-15.58,27.98-33.69,36.67-53.83h-11.11Zm-25.56-189.65c-32.66-32.54-76.09-50.46-122.29-50.46-23.35,0-46,4.55-67.33,13.54-20.61,8.68-39.11,21.1-55,36.92-15.65,15.57-27.99,33.68-36.68,53.82h22.54s.02-.09.03-.14q1.2-1.29,2.4-2.57.65-.65,1.29-1.29.46-.46.83-.92.74,0,1.38.19,1.2-.37,2.31-.55,1.47-.55,2.95-1.01,1.2-.92,2.4-1.93.46-.55,1.01-1.19,1.11-.19,2.21-.28l.92-.92s.93-3.85,1.02-4.13c.09-.36.27-.91.37-1.19,0-.37-.83-.27-.83-.27q-.83.18-1.75.45-.56.65-1.02,1.2-.83.64-1.57,1.19-.18-.09-.46-.27.28-.46.65-1.01.83-.65,1.66-1.29.83-.83,1.66-1.56,0-.37.09-.64-.55-.09-1.11-.19-.55.1-1.1.19-.46-.09-.92-.28.09-.27.18-.73v-.92q-.18-.55-.28-1.19.46-.74.93-1.38-.19-.27-.47-.64.1-.74.28-1.56-.46-.19-.83-.46.09-.46.28-1.1-.28-.64-.46-1.38-.83,1.38-1.57,2.66-1.2,1.29-2.4,2.57-1.1-.09-2.21-.09l-.18-.92s.55-1.47.73-1.74c0-.18.92-1.1.92-1.1q.28-.55.56-1.2,0-.18-.19-.27s-.64.27-.83.37c-.18,0-.73-.19-.73-.19q-.1-.64-.1-1.37h-.36q-.74.46-1.39.91c-.62.18-.65.19-1.32.44,1.44-1.95,2.91-3.86,4.43-5.74.01,0,.02,0,.03-.02q.27.28.64.55.28.28.65.64s.92,1.01,1.01,1.29c.09.09.74.37.74.37q.46-.19,1.01-.37.56-.83.93-1.47-.56-.46-1.11-.92.18-.46.46-1.1.46-.18.83-.37.37.55.74,1.01.27.1.55.1.37-.28.74-.46.37-.83.83-1.66.37-.91.83-1.92-.19-.46-.28-1.01-.37.09-.83.09-.28-.18-.55-.46v-.46q.37-.73.83-1.47.46-.18,1.01-.55s.19.37.19.65c.09.09.46.36.46.36q.09.55.18,1.1.28.19.55.46.56-.27,1.2-.64.37-.73.65-1.28,1.1-1.38,2.21-2.57.09-.56.28-1.01h-.83s-1.48.18-2.31.27c-.83.09-1.01-1.01-1.01-1.01.01-.04.02-.07.02-.1,5.75-5.85,11.93-11.27,18.51-16.21-.03.24-.05.49-.09.98q-.93,2.02-1.66,3.86.55-.09.92-.09.55-.55,1.2-1.29.37,0,.92-.18-.09.73-.19,1.47-.64.36-1.19.73-.65.18-1.39.55-.18.28-.46.64,1.48-.36,2.86-.73.28.37.46.64-.18.74-.55,1.47-1.02.74-2.03,1.47-1.2,1.01-2.3,1.93-.83,1.37-1.66,2.84.09,1.47.27,3.03-.18,2.3-.18,4.59.92,1.47,1.84,3.03.83-.18,1.66-.37.28.74.55,1.38.65.27,1.2.64,1.11-.64,2.31-1.47,1.1-1.65,2.3-3.39.46-1.56.92-3.12,1.76-1.66,3.42-3.31.27-1.1.55-2.2.64-.64,1.38-1.38,3.41-.92,6.92-1.92,1.19-.65,2.39-1.2.83-1.01,1.85-2.11.36-.92.64-1.83,1.11-.65,2.12-1.29,1.2-.09,2.68-.37,1.1.1,2.3.19,1.57-.46,3.04-1.01,2.49-1.75,4.89-3.49,1.01-.92,2.03-1.74-.46-.37-.83-.83-1.2.18-2.49.46h-2.58q.18-.64.18-1.29.74-.46,1.66-1.01.65,0,1.47-.09.83.46,1.76.83,1.19.09,2.39.27.83-.64,1.75-1.19-.27-.64-.55-1.38-.83-.36-1.66-.82-.92.09-1.84.18-.28-.55-.28-1.01.74-.46,1.57-.82l1.84.36q.65-.64,1.29-1.19,1.11-.37,2.12-.64.28-.55.65-1.01,1.29-.37,2.58-.74.92-1.1,1.84-2.2-.46-.09-1.01-.18h-1.75q-.28-.28-.37-.55.46-.55.74-1.01,1.2-.55,2.21-.92.46-.46,1.01-.92-.27-.27-.36-.55-.74.09-1.57.18-1.38.28-2.77.56-.46-.19-.64-.37.46-.46.83-.92,1.56-.73,3.22-1.47.83-.46,1.66-1.01,0-.09-.09-.27-1.01,0-1.94.09.19-.28.28-.46,1.57-.46,2.95-.83,2.21-.46,4.43-.91,1.84-.65,3.5-1.29.37-.46.64-.92-1.38.1-2.67.19-2.03.46-4.15.82-1.56.46-3.04.92-1.38.55-2.77,1.1-.82.46-1.56.92-.74.18-1.57.37.37-.46.55-.83,1.2-.55,2.22-1.01.27-.27.55-.55c-.55,0-.63,0-1.05.06,15.66-5,32.33-7.71,49.63-7.71,37.56,0,72.18,12.74,99.76,34.1-.52-.3-1.33-.75-1.39-.75-.19-.09-1.39-.18-1.39-.18q.19.64.28,1.19.65.55,1.11,1.01.83.55,1.56,1.1.74.64,1.57,1.38.46.73.92,1.37-.09.19-.18.37s-.92-1.01-1.01-1.19c-.19-.19-.93-.83-.93-.83q-1.01-.55-1.93-1.1-.74-.73-1.2-1.29-.92-.45-1.66-.82-.28.37-.37.73.55.65,1.01,1.29v.55q-.82-.55-1.75-1.1-.73-.65-1.56-1.29-.37-.64-.65-1.28-.37-.65-.83-1.38-.55.28-1.29.46.28,1.01.74,2.02.74.64,1.57,1.38.64,1.19,1.38,2.47s.46.74.74,1.1c.18.28.64.19.64.19q.65.27,1.11.37.18-.19.27-.56.65.37,1.29.83.65.46,1.2,1.01s1.29,1.38,1.48,1.65c.27.37,1.38,1.29,1.66,1.65.27.46,0,.74,0,.74q-.65-.28-1.11-.37-.64-.73-1.11-1.38-.64-.64-1.47-1.37-.46-.55-.92-1.1-.65-.19-1.11-.28-.37.37-.64.83.09.82,0,1.65s-.19,1.28-.19,1.47c-.09.09-1.2.46-1.2.46q-1.01-.28-2.21-.74-.46-.46-1.01-.92.27-.45.55-.91.83.09,1.66.18.28-.46.55-.92-.18-1.01-.37-2.02-.55-.82-1.1-1.56-1.02-1.28-1.94-2.66-.74-1.1-1.47-2.2-.46-1.01-1.11-2.11-.74-.83-1.66-1.75-1.01-.45-2.12-1.01-.46.1-.92.19-.09.37-.09.82.27.65.55,1.38v1.19s-.92,0-1.2-.09c-.18,0-.46.64-.46.64q.37.65.55,1.2.56.27,1.02.64s1.75,1.56,1.84,1.65c.09.19,1.02,1.2,1.02,1.2,0,0,1.38,1.19,1.47,1.37.09.09,0,.74,0,.74q-.55-.1-1.2-.19-.74-.46-1.57-1.1-.64-.64-1.38-1.19-.64-.64-1.29-1.38-1.2-.64-2.21-1.28-1.11-.46-2.21-.83s-1.76-.55-1.94-.55c-.28-.09-1.01,0-1.2,0-.09,0-.83-.55-.83-.55,0,0-.83-.73-1.01-.92-.28-.27-2.03-.46-2.03-.46q-.46.28-1.11.55.1.37.1.74.83.27,1.75.46.73.18,1.47.36.56,0,1.02.1.37.27.55.45.28.37.64.74.65.64,1.39,1.19-.28.46-.56.92-.83-.46-1.56-.83-.37-.82-.83-1.56-.65-.09-1.29-.18s-1.11,1.1-1.57,1.01c-.28-.09-.74-.46-.74-.46h-1.66q-.92.18-1.66.46-.73-.46-1.47-1.01-.37.09-.74.27-1.29-.09-2.58-.09-1.2.83-2.49,1.75s-1.29.73-1.57.64c-.37,0-1.84-.46-1.84-.46q-.37-.46-.74-1.01-.27-.83-.46-1.65-.46-.37-.92-.74-.74-.45-1.48-.82-.83.09-1.75.09-.18.37-.46.83.92.64,1.94,1.28.55.83,1.1,1.65.28.74.65,1.56-.28.37-.65.74-.36,0-.92-.19-.46-.64-.92-1.37h-1.94q-1.01.36-2.12.64-.55.37-1.1.73.37.55.74,1.11.36.55.82,1.19-.18.73-.27,1.65-.92-.18-1.75-.18.09-.65.18-1.29-.55-.55-1.2-1.1-.83-.18-1.56-.27-.83.18-1.48.45.28.46.37.92.46.74.92,1.38-.37.27-.92.64-.83-.64-1.57-1.28-1.01-1.1-1.93-2.11-.65-1.2-1.48-2.3-.55-.92-.92-1.83.46-.19.92-.37,1.2.64,2.4,1.19,1.47.28,2.95.46,1.47-.18,2.76-.46.65-.64,1.11-1.28-.28-.74-.46-1.47-.83-.46-1.57-.92-2.4-1.01-4.98-2.02-1.84-.82-3.59-1.56-2.12-.73-4.15-1.47-.92-.36-1.84-.73-.19-.46-.47-.92-.27-.18-.64-.37-.83-.18-1.84-.36-.65.27-1.39.46-.64-.19-1.2-.37-.55-.28-1.01-.46-.37.09-.83.18-.37-.27-.74-.64-1.01.09-2.12.09.1.74.1,1.38-.74.09-1.3.27-1.1-.27-2.02-.45-.65-.37-1.39-.74-.83.37-1.75.74.37.55.92,1.19.19.64.28,1.28-.74,0-1.57.09-.18.46-.46,1.01-.74.37-1.29.74-.83,0-1.47-.09-1.02.46-1.94.91h-2.67q-1.2.65-2.31,1.29-1.47,1.28-2.86,2.66-.18,1.01-.36,2.11-1.29.55-2.59,1.01-.18,1.1-.36,2.3h-2.4q-.19,1.01-.28,2.02-1.1.18-2.03.36-.46.37-.92.74-1.75.46-3.5.91-1.38.92-2.77,1.93,0,1.29.19,2.48,1.01.55,1.93,1.01.28.83.46,1.74-.46.74-.82,1.38.09,1.19.36,2.39,1.2.46,2.4,1.01,1.48-1.01,2.86-1.93,1.47-.37,2.86-.64,1.2.09,2.39.18.83.92,1.57,1.93.55,1.28,1.11,2.66.73,1.65,1.29,3.3,1.29.28,2.49.65.64-.65,1.38-1.2,1.11-.92,2.12-1.93.55-.64,1.2-1.28-.28-1.01-.55-1.93.46-.46.82-.92,1.2-.64,2.49-1.19.37-1.01.83-1.93-.27-.82-.37-1.56-1.1-.91-2.12-1.92-.83-1.2-1.75-2.48.1-.55.1-1.19.46-.65.82-1.29.93-.27,1.76-.55,1.01-.28,2.12-.46.83-.64,1.75-1.19s1.01-1.01,1.01-1.2v-1.37q.28-.83.46-1.56.37-.46.65-.83.83-.09,1.57-.27.83,0,1.56.09,1.48.64,2.77,1.28.28.37.46.74-.37.27-.65.64-.27-.09-.46-.18-.83-.1-1.56-.1-.37.55-.65,1.01-.28.65-.46,1.29-.83.46-1.57.92-.92.27-1.75.46-.28,1.28-.46,2.66-.09.82-.09,1.65.46.92,1.01,1.93.74,1.01,1.66,1.92.65.46,1.38.92,1.66-.09,3.14-.27s1.84-1.11,1.84-1.29c.09-.09,1.75-.73,1.75-.73q1.02.64,1.94,1.19.46,1.01,1.01,2.11-.36.18-.83.46-.83,0-1.66.09-.36-.46-.82-.92-.74-.18-1.66-.27-1.11.55-2.12,1.01-.93.64-1.94,1.28.37.65.64,1.2,1.02.64,1.94,1.19-.28.73-.55,1.56-.83-.09-1.75-.18-.46-.55-.93-1.01-.73-.55-1.56-1.1-.65.73-1.29,1.37.18,1.01.46,1.93-.28.92-.46,1.74-.56,1.66-1.11,3.22-.74.82-1.57,1.65-1.1-.19-2.39-.46-.74-.46-1.48-.83-.83-.09-1.66-.27-1.29.82-2.67,1.65-1.2.37-2.31.64-.83-.18-1.66-.37-.83.28-1.66.65h-2.3q-.55-.74-1.11-1.38-.55-.92-1.19-1.84,0-.73.09-1.46s1.56-1.47,1.56-1.75.37-1.65.37-1.65q-.64-.73-1.19-1.38.09-.46.09-.91-.46-.55-.92-1.11-.83.19-1.66.37-.47.55-.83,1.1.64.28,1.29.65-.19.73-.28,1.56-1.57.36-3.23.73-.09,1.1-.18,2.2,1.2.83,2.3,1.56.28,1.2.46,2.3-.18.92-.46,1.83-1.1.19-2.21.37-1.47.37-2.86.73-.46.46-.92,1.01-1.2.37-2.4.74-.36,1.65-.82,3.3-1.76.09-3.6.19-.55,1.1-1.2,2.2-1.38,1.01-2.76,1.93-.93.27-1.76.55-.46-.37-.92-.83-.83.28-1.66.46,0,.83.1,1.65-.74.64-1.57,1.29-1.94.27-3.87.55-.1.91-.19,1.83,1.2.28,2.49.46,1.01.37,1.94.83.37.92.73,1.83.37,1.1.74,2.21-.18.36-.37.82-.18.64-.37,1.38-.09,1.28,0,2.48c-.29.88-.35,1.06-.54,1.7h12.18s.04-.03.07-.05q1.75-.28,3.41-.55c.26.29.4.45.52.6h2.91c.05-.14.1-.31.17-.51,0,0,.27-.37,1.84-.55,1.57-.18,1.66-.83,1.66-.83q.65-.18,1.2-.27.74.55,1.48,1.19c.12.47.18.73.23.97h6.95c-.66-.82-1.31-1.65-1.56-1.98-.55-.73-1.29-2.38-1.29-2.38q0-.74.09-1.38.18-.74.37-1.47h1.29q.74.28,1.47.46.37.64.65,1.19.18.74.37,1.47.64.73,1.38,1.47s.65.92.83,1.38c.37.45,1.02.73,1.38.82.22.09.7.26,1.13.42h23.02c-.03-.6-.08-1.34-.08-1.34,0,0,.55-.91.73-1.28.19-.37.92-1.01.92-1.01q1.2,0,2.31-.09s.64-.92.74-1.56c.18-.65.27-2.48.27-2.48q.46-.83.93-1.74.46,0,.73-.1.65.28,1.2.55.09.92.19,1.75.64.37,1.19.73.65.92,1.11,1.75-1.2.64-2.4,1.28v1.56q.46.37.93.83,1.65-.19,3.31-.28,1.85-.55,3.69-1.19,0-.64.09-1.29-1.56-.36-3.04-.73-.28-.73-.46-1.47.55-.46,1.01-.92.74-.55,1.57-1.01,1.2-.18,2.31-.46.92-.18,1.84-.45.46-.19,1.11-.28.55.83,1.19,1.74s-.73.37-1.38.56c-.64.09-.92.45-.92.45q-.83.74-1.75,1.56.64.83,1.29,1.56l1.84.92q.65,1.01,1.39,2.11c.21.13.38.24.52.33h103.93c-8.68-20.14-21.02-38.25-36.65-53.82Zm-257.53,32.11q-.46.82-.92,1.83-.55.46-1.01.92-.37.92-.65,1.84-.28,1.01-.37,2.11-.18.64-.37,1.28-.18.55-.46,1.38-.64.55-1.2,1.19-.46.83-1.01,1.66-.18.55-.37,1.19-.55,1.56-1.01,2.94-.74,1.46-1.39,2.84-.83.73-1.65,1.38,0-.92.09-1.75.73-2.02,1.47-3.94.28-.55.74-1.29c-.11-.28-.16-.39-.21-.53,2.6-4.81,5.43-9.48,8.49-13.98-.05.22-.09.48-.17.93Zm82.05-63.24q-.92.19-1.75.28s.08-.08.11-.12c1.56-.55,3.13-1.08,4.7-1.59-1.4.7-1.49.74-3.06,1.43Zm15.21,83.43q-1.47.09-3.04.18c-.96.69-1.02.74-1.85,1.34h7.73c-.98-.54-2.84-1.52-2.84-1.52Zm99.38,140.61q-.18-.46-.37-1.01c-.22-1.2-.27-1.48-.4-2.25h-57.91c.06.16.14.35.23.59q.65,1.56,1.2,3.03.46,1.38.92,2.66-.37,1.01-.64,2.12-1.11,1.1-2.21,2.2-.74,1.38-1.57,2.75-.28,1.65-.56,3.31-.09,3.12-.18,6.24.28.46.55.82,1.57,1.93,3.14,3.86s2.21,3.94,2.3,4.22c-.09.37-.27,2.66-.37,3.03-.09.27,0,4.31,0,4.31q.56,1.29.93,2.66.83.46,1.47.83.65.92,1.29,1.74.37,1.2.55,2.39.65.64,1.2,1.19.28.74.56,1.47.83.55,1.47,1.1-.18.92-.18,1.75s-.28,1.83-.37,2.2c0,.27,1.38,1.38,1.47,1.65.19.28,3.23.18,3.23.18q1.29-.91,2.58-1.92s1.94-.55,2.58-.65c.65-.09,1.11.56,1.11.56q1.29.09,2.49.18s1.75-1.38,2.03-1.56c.36-.28,2.39-.18,2.39-.18q.83-.37,1.66-.74.83-1.28,1.75-2.48,2.31-1.1,4.71-2.2.18-.92.27-1.74.55-1.01,1.11-2.02,1.2-.46,2.39-.92.37-1.01.65-1.93.18-1.19.46-2.38.37-1.01.65-2.02.92,0,1.84-.1.92-.64,1.94-1.37.46-1.56.83-3.03v-2.66q-.1-1.2-.19-2.39.55-1.74,1.11-3.49.18-.27.37-.55,1.1-.27,2.12-.36.55-1.29,1.1-2.48,1.29-1.19,2.49-2.39,1.38-.18,2.77-.46.64-1.01,1.29-2.02,1.01-1.19,2.03-2.47-.1-4.59-.28-9.27Z"/>
    <path class="cls-2" d="m187.98,64.79q.65-.46,1.2-1.01,0-.28-.18-.46-.74.09-1.38.28-.83.46-1.57.83-.46.73-1.01,1.47.55,0,1.29-.18.83-.46,1.66-.92Z"/>
    <path class="cls-2" d="m225.59,64.33h1.75q0,.55.18,1.1-.74.64-1.38,1.19-.37.46-.74,1.01h1.66q.74-.37,1.57-.83.92,0,1.66.09.74.55,1.29,1.1.92.09,1.84.18.37-.64.65-1.38.83-.37,1.66-.64,1.2-.28,2.49-.55,1.2-.92,2.4-1.84.37-1.38,1.01-2.94-.92-.37-1.66-.83-.83-.09-1.75-.09-1.38.64-2.58,1.19-1.11.18-2.12.28-.55-.55-1.01-1.01-1.01.18-1.84.28-.46.55-.92,1.19-.74.18-1.48.28,0-.28.18-.64-.46-.37-.92-.64-.83.46-1.57.83-1.11,1.19-2.03,2.39.28.55.55,1.1.18.09.37.18.37-.46.74-1.01Z"/>
    <path class="cls-2" d="m284.04,32.02q.65.18,1.29.37.92-.09,1.84-.18.28-.18.55-.37t.65-.28q.65,0,1.38.09,0,.28-.18.55-.46.28-.92.55v.55q.83.46,1.57.92.74.46,1.29.83,1.11.18,2.03.37.28-.28.46-.64-.18-.73-.09-1.47.65-.18,1.11-.46.74-.09,1.47-.28.83.28,1.38.46-.18.46-.37.83,1.11.18,2.12.37,1.75,0,3.41.09.28-.37.65-.64-.55-.55-1.11-1.01-1.57-.46-3.04-.92-1.66-.37-3.5-.83-.46-.46-.92-.92-.65-.28-1.38-.55h-2.49q-.37.46-.65.92h-1.29q-.74-.28-1.38-.55-.65.18-1.2.46-.55-.46-.83-.83-1.38.28-2.95.55.18.46.28.83.37.64.83,1.19Z"/>
    <path class="cls-2" d="m298.32,30.74q1.29.18,2.49.46h2.21q.46-.09.92-.18,1.01-.18,1.75-.46.83-.09,1.48-.28.37-.28.74-.46-.28-.28-.55-.55-.46,0-1.01-.09h-1.75q-.09.09-.46.18-.65.09-1.29.09s-1.2-.09-1.57-.18c-.18,0-1.38-.28-1.38-.28q-.46-.18-.74-.37-1.01,0-1.94-.09-.46.37-1.11.73.09.28.37.64.92.46,1.84.83Z"/>
    <path class="cls-2" d="m170.73,115.63q-.18.73-.27,1.28c-.34.36-.55.59-.73.79-.31.36-.49.62-1.02,1.33q-.74-.56-1.39-1.11-.83.37-1.66.74c-.06-.44-.1-.73-.13-.96-.06-.47-.08-.76-.14-1.61q-.83.46-1.57,1.01c-.72.32-.81.36-1.3.6-.08.04-.17.08-.27.13.01-.05.02-.09.02-.13.26-1.43.27-1.48.54-3.08q1.19-1.28,2.48-2.57.65-1.38,1.39-2.75.73.09,1.29.27.09.55.09,1.2,1.01.18,2.12.18,0,.82.09,1.74-.18.83-.27,1.75.27.64.73,1.19Z"/>
    <path class="cls-2" d="m248.27,95.07q1.29,0,2.49-.09.65-1.28,1.29-2.57-.46-.83-.92-1.65.55-.46,1.2-1.01.28-.55.55-1.1-1.11-.83-2.3-1.65-1.38,0-2.77.09-.46,1.1-1.01,2.39-.92-.09-2.03-.18-.74,1.1-1.47,2.02.55.46,1.11.92.28.46.46.92-.92.55-1.75.92,0,1.19-.09,2.39.74.46,1.48,1.01,1.94-1.19,3.78-2.39Z"/>
    <path class="cls-2" d="m252.23,81.21q.37.46.74.92.55.46.92,1.01-.46.18-1.01.46-.37.46-.92.92,1.01.83,1.84,1.65.18.64.28,1.19,1.29.18,2.49.37.83.73,1.47,1.56-.18.83-.18,1.56-1.38.09-2.77.18-.18.83-.55,1.65.55.73,1.11,1.56-.74.28-1.48.64-.09.37-.18.83,1.2.18,2.4.37.09.37.28.73-2.3,1.38-4.52,2.75.09.83.28,1.65,1.01-.18,2.12-.28.55-.37,1.11-.83t.83-.83.83-.64q.74,0,1.48.09.55.18,1.11.28.65-.09,1.38-.18.46-.37.92-.73.46-.18.83-.46.74.09,1.38.18.28-.09.37-.28.28-.37.46-.73-.46-.28-1.01-.55-.09-.46-.18-.83.65-.18,1.2-.28.74-.18,1.48-.28.18-.37.37-.83,0-1.19-.18-2.39-.92-.18-2.03-.28-.46-.46-1.11-.83.18-.83.18-1.65-.83-.55-1.57-1.1.09-.46.28-.92-.74-.28-1.29-.55-.09-.37-.18-.73.28-.55.55-1.1-.18-.28-.28-.64-.74-.28-1.57-.46-.37-.37-.74-.73,0-.28.18-.64.65-.28,1.38-.55.09-.46.09-.92-.37-.46-.65-1.01h-.92q-.92.09-1.84.18,0-.46.09-.83-.09-.55-.18-1.1-.92-.09-1.94-.18-.46.37-.92.73-.46.64-.92,1.28-.55.28-1.29.64.09-.55.09-1.1-.46-.46-.92-.92-.55.28-1.29.64-.18.83-.46,1.56.65.64,1.2,1.28.65-.28,1.38-.55Z"/>
    <path class="cls-2" d="m259.51,76.99q.28-.28.55-.55,0-.28-.09-.55-.46.09-.92.09-.18.37-.28.64.18.28.37.55.18-.09.37-.18Z"/>
    <path class="cls-2" d="m262.28,74.7q.18-.18.37-.46.18-.83.18-1.74-.28-.09-.65-.18h-.74q-.37.37-.65.73-.09.64-.18,1.28.46.28.92.55.28,0,.74-.18Z"/>
    <path class="cls-2" d="m252.88,50.1q.46-.92.92-1.93-.74-.18-1.57-.37-.74.37-1.38.64-.55.83-.92,1.74.18.46.28.92,1.29-.46,2.67-1.01Z"/>
    <path class="cls-2" d="m366.73,259.54q-.28-1.1-.55-2.2-.92.28-1.84.73-.28,1.19-.46,2.39-.92,1.28-1.84,2.75-.83,1.19-1.75,2.39-.46.73-1.01,1.56-.37-.83-.83-1.47-.74.55-1.66,1.19-1.29,1.38-2.58,2.75-.55,1.65-1.11,3.3.65,1.1,1.2,2.2-.18.83-.37,1.74-.83,1.1-1.66,2.2-.92.83-1.84,1.65-.09,1.01-.09,2.02,1.11.18,2.12.46s-.37,1.56-.92,1.93c-.46.37-.28,2.2-.28,2.2q1.11.09,2.12.37.55.37,1.11.73.55-.46,1.11-.92.65-.18,1.29-.37.65-.55,1.29-1.1.46-.37,1.01-.64.18-.55.37-1.01.55-.73.92-1.38.28-.92.55-1.84s1.01-1.84,1.11-2.2c.09-.37.46-1.01.46-1.01q-.18-.83-.37-1.56.18-.73.28-1.38.74-.37,1.38-.73.46-.55.83-.92.28-.64.55-1.28-.09-.73-.09-1.65.46-.55.83-1.1.28-1.01.65-2.02.28-.46.65-.92.37-1.01.74-2.11.09-1.01.09-2.11-.46-.73-.92-1.38-.28-.64-.46-1.28Z"/>
    <path class="cls-2" d="m349.3,50.56q.74.46,1.38.92.65.83,1.2,1.65,1.11.37,2.21.83,1.11.09,2.21.28.37-.18,1.01-.28-.18-.46-.28-.83-.28-.09-.46-.18-.28-.37-.65-.64s-1.29-1.01-1.47-1.19c-.18-.18-.92-1.1-.92-1.1q-.09-.46-.09-.83.28-.55.37-1.19,1.01-.28,1.94-.46s1.66-1.1,1.84-1.19c.28-.18,2.4-.18,2.4-.18h3.04c.09,0,2.4.46,2.4.46,0,0,1.29.09,1.29,0,.18,0,.37-.28.37-.28q-.55-.37-1.2-.83-1.01-.46-1.94-.83-.46-.09-.92,0t-1.01.28q-.92,0-1.94-.09-1.11-.28-2.12-.64-.83-.18-1.84-.37-.18.46-.55.83-.83-.37-1.57-.55-.37.28-.65.55-1.29-.18-2.58-.28v.73q.09.64.28,1.28-.37.09-.74.09s-.74.64-1.11.64c-.37.09-1.11.64-1.11.64q.09.83.37,1.74.37.55.83,1.01Z"/>
    <path class="cls-2" d="m346.72,56.25q.37-.09.74-.28.09-.46.28-.92-.28-.46-.37-.92-.92-.09-1.75-.28s-.65,1.28-.65,1.38c.09.18.55.92.55.92q.55.09,1.2.09Z"/>
    <path class="cls-2" d="m291.87,50.65q-.55-.09-1.11-.09-.83.28-1.66.55-.09.46-.28.83.92.18,1.75.28.92-.28,1.84-.46-.09-.37-.37-.64-.09-.18-.18-.46Z"/>
    <path class="cls-2" d="m297.86,49.55c-.55-.09-.92.18-.92.18h-1.01q-.37-.28-.65-.55h-1.48q-.28.55-.65,1.19.74.28,1.38.64,0,.46-.09.92.18.18.28.46s.55.18.65.18c.28,0,.74-.55.74-.55q.18-.46.28-.92-.18-.18-.37-.37s-.18-.46-.09-.64c0-.18.46,0,.46,0q.18.28.46.55s1.47.55,1.75.46c.09,0,.55-.46.74-.55,0-.09.18-.64.18-.83s-1.2-.18-1.66-.18Z"/>
  </g>
  <g>
    <g>
      <rect class="cls-4" x="61.69" y="218.59" width="9.43" height="41.11"/>
      <rect class="cls-4" x="103.45" y="218.59" width="9.42" height="41.11"/>
      <path class="cls-9" d="m149.82,134.46l-11.23,17.5h11.07l11.24-17.5h-11.08Zm-41.74,0l-11.24,17.5h11.06l11.24-17.5h-11.06Zm-44.28,0h-11.45l11.95,17.5h11.47l-11.97-17.5Zm-41.76,0h-11.45l11.94,17.5h11.49l-11.98-17.5Z"/>
      <polygon class="cls-8" points="107.9 151.97 96.84 151.97 90.29 162.19 95.98 170.51 107.9 151.97"/>
      <polygon class="cls-8" points="108.19 199.36 92.34 176.19 86.64 167.87 75.77 151.97 64.3 151.97 81.07 176.56 77.43 182.23 66.45 199.36 34.02 151.97 22.53 151.97 61.54 209.16 71.17 209.16 83.12 190.56 86.76 184.9 103.31 209.16 112.92 209.16 149.66 151.97 138.59 151.97 108.19 199.36"/>
      <rect class="cls-8" x="173" y="151.97" width="8.4" height="57.2"/>
      <path class="cls-8" d="m244.42,170.72c0-10.35-8.41-18.75-18.84-18.75h-24.61v57.2h8.4v-48.8h16.21c5.77,0,10.44,4.58,10.44,10.35s-4.66,10.44-10.44,10.44h-4.41l.68,11.03,16.04,16.97h11.54l-19.1-20.2c8.15-2.12,14.09-9.42,14.09-18.24Z"/>
      <rect class="cls-8" x="264.01" y="152.01" width="41.33" height="8.4"/>
      <polygon class="cls-8" points="264.01 209.2 305.34 209.2 305.34 200.8 272.41 200.8 272.41 184.76 305.34 184.76 305.34 176.36 264.01 176.36 264.01 209.2"/>
      <path class="cls-8" d="m333.32,183.96v-31.91h-8.41v31.91c.09,13.66,10.7,24.69,24.36,25.21h15.11v-8.41h-15.03c-9.08-.34-16.03-7.72-16.03-16.8Z"/>
      <polygon class="cls-8" points="383.88 209.2 425.21 209.2 425.21 200.8 392.28 200.8 392.28 184.76 425.21 184.76 425.21 176.36 383.88 176.36 383.88 209.2"/>
      <rect class="cls-8" x="383.88" y="152.01" width="41.33" height="8.4"/>
      <g>
        <path class="cls-1" d="m514.09,146.63c.59-1.84,1.63-3.82,3.44-5.54,2.38-2.25,5.5-3.49,8.77-3.65.14,0,.27-.01.41,0,2.26,0,4.3.44,6.14,1.2,11.25,4.63,14.99,21.09,14.99,21.09-3.67-3.23-4.81-2.91-15.79-2.48s-14.65-9.9-14.65-9.9c9.51-6.23,19.4.49,19.83.78-5.02-5.61-11.47-7.83-19.25-4.38-1.39.62-2.73,1.56-3.89,2.89Z"/>
        <path class="cls-8" d="m521.2,138.25c1.81-.52,3.51-.77,5.1-.8-3.26.16-6.39,1.4-8.77,3.65-1.81,1.72-2.86,3.7-3.44,5.54-1.79,2.07-3.14,5.08-3.61,9.33-1.92,17.58,20.98,27.79,21.66,28.09-30.01-7.74-32.14-39.78-10.95-45.81Z"/>
        <path class="cls-6" d="m532.97,138.68s-.08-.04-.12-.05c-1.99-.85-4.09-1.24-6.14-1.2"/>
        <path class="cls-7" d="m539.88,199.74c-.59,1.84-1.63,3.82-3.44,5.54-2.38,2.25-5.5,3.49-8.77,3.65-.14,0-.27.01-.41,0-2.26,0-4.3-.44-6.14-1.2-11.25-4.63-14.99-21.09-14.99-21.09,3.67,3.23,4.81,2.91,15.79,2.48,10.98-.42,14.65,9.9,14.65,9.9-9.51,6.23-19.4-.49-19.83-.78,5.02,5.61,11.47,7.83,19.25,4.38,1.39-.62,2.73-1.56,3.89-2.89Z"/>
        <path class="cls-8" d="m532.77,208.12c-1.81.52-3.51.77-5.1.8,3.26-.16,6.39-1.4,8.77-3.65,1.81-1.72,2.86-3.7,3.44-5.54,1.79-2.07,3.14-5.08,3.61-9.33,1.92-17.58-20.98-27.79-21.66-28.09,30.01,7.74,32.14,39.78,10.95,45.81Z"/>
        <path class="cls-6" d="m520.99,207.68s.08.04.12.05c1.99.85,4.09,1.24,6.14,1.2"/>
      </g>
      <g>
        <path class="cls-10" d="m452.76,146.79c.59-1.84,1.63-3.82,3.44-5.54,2.38-2.25,5.5-3.49,8.77-3.65.14,0,.27-.01.41,0,2.26,0,4.3.44,6.14,1.2,11.25,4.63,14.99,21.09,14.99,21.09-3.67-3.23-4.81-2.91-15.79-2.48-10.98.42-14.65-9.9-14.65-9.9,9.51-6.23,19.4.49,19.83.78-5.02-5.61-11.47-7.83-19.25-4.38-1.39.62-2.73,1.56-3.89,2.89Z"/>
        <path class="cls-8" d="m459.87,138.41c1.81-.52,3.51-.77,5.1-.8-3.26.16-6.39,1.4-8.77,3.65-1.81,1.72-2.86,3.7-3.44,5.54-1.79,2.07-3.14,5.08-3.61,9.33-1.92,17.58,20.98,27.79,21.66,28.09-30.01-7.74-32.14-39.78-10.95-45.81Z"/>
        <path class="cls-6" d="m471.64,138.85s-.08-.04-.12-.05c-1.99-.85-4.09-1.24-6.14-1.2"/>
        <path class="cls-5" d="m478.55,199.9c-1.38,5.13-7.11,9.33-12.62,9.19-13.14,1.62-21.76-21.3-21.13-22.29,7.57,7.28,23.92-4.26,30.44,12.38-9.51,6.23-19.4-.49-19.83-.78,5.49,6.84,16.32,8.51,23.14,1.49Z"/>
        <path class="cls-8" d="m471.44,208.28c-1.81.52-3.51.77-5.1.8,5.37-.04,10.87-4.2,12.21-9.18,14.07-18.04-13.59-36.67-18.06-37.43,30.01,7.74,32.14,39.78,10.95,45.81Z"/>
        <path class="cls-6" d="m459.66,207.85c2.02.87,4.17,1.29,6.26,1.25"/>
      </g>
    </g>
    <rect class="cls-8" x="173" y="231.28" width="373.81" height="1.87"/>
  </g>
  <path class="cls-3" d="m279.1,199.61h.25c-.08.04-.17.08-.27.13.01-.05.02-.09.02-.13Z"/>
</svg>