<?xml version="1.0" encoding="UTF-8"?>
<svg version="1.1" xmlns="http://www.w3.org/2000/svg" width="550" height="138">
<path d="M0 0 C4.3664257 1.74657028 8.26512802 3.78389246 12.3125 6.125 C20.39803505 10.72737802 28.60214741 14.99676532 37 19 C37.68755371 19.3285498 38.37510742 19.65709961 39.08349609 19.99560547 C114.34457559 55.58525511 202.05318147 62.75618258 283.65345001 71.74147034 C286.97963048 72.10793017 290.30570877 72.47531393 293.63179684 72.84261131 C308.08726987 74.43870395 322.54309214 76.03166432 337.00035763 77.61144829 C338.70368035 77.79761194 340.40697668 77.98401722 342.1102457 78.17067146 C346.21113149 78.61966244 350.31239278 79.06426493 354.41481018 79.49905396 C361.61411261 80.26652422 368.79091992 81.08522107 375.95898438 82.10742188 C392.69541087 84.5863598 392.69541087 84.5863598 408.25 79 C410.48854748 77.86516808 412.72954188 76.73515306 414.97265625 75.609375 C416.11105957 75.01447266 417.24946289 74.41957031 418.42236328 73.80664062 C424.67758551 70.59049692 431.19645522 67.9469455 437.6875 65.25 C438.66858734 64.83923218 438.66858734 64.83923218 439.66949463 64.42016602 C475.02641394 49.63512233 511.56821727 41 550 41 C550 73.01 550 105.02 550 138 C368.5 138 187 138 0 138 C0 92.46 0 46.92 0 0 Z " fill="#28224e" transform="translate(0,0)"/>
<path d="M0 0 C0 32.01 0 64.02 0 97 C-143.88 97 -287.76 97 -436 97 C-436 96.67 -436 96.34 -436 96 C-434.93305908 95.98541748 -433.86611816 95.97083496 -432.7668457 95.95581055 C-380.12323355 95.18694816 -326.67541282 92.75779504 -275 82 C-273.89140625 81.77199707 -272.7828125 81.54399414 -271.640625 81.30908203 C-227.47490666 72.12679727 -185.50165149 57.91273499 -144.70556641 38.73852539 C-126.11005964 29.9994327 -107.4188536 21.75361799 -88 15 C-87.16855469 14.71044434 -86.33710938 14.42088867 -85.48046875 14.12255859 C-57.80134401 4.62602529 -29.22665479 0 0 0 Z " fill="#525252" transform="translate(550,41)"/>
<path d="M0 0 C0 31.68 0 63.36 0 96 C-6.56962025 91.62025316 -6.56962025 91.62025316 -9.3046875 89.703125 C-18.16414638 83.57949285 -27.20326104 78.46678469 -37 74 C-37.65129883 73.6999707 -38.30259766 73.39994141 -38.97363281 73.09082031 C-72.7675157 57.74213749 -110.71634807 52.2103449 -147.078125 46.31304932 C-149.71998249 45.88272389 -152.36011476 45.44224343 -155 45 C-155 44.34 -155 43.68 -155 43 C-104.88264404 20.41423814 -56.00103543 0 0 0 Z " fill="#8DCC19" transform="translate(550,41)"/>
</svg>
