<?xml version="1.0" encoding="UTF-8"?>
<svg version="1.1" xmlns="http://www.w3.org/2000/svg" width="550" height="80">
<path d="M0 0 C181.5 0 363 0 550 0 C550 26.4 550 52.8 550 80 C368.5 80 187 80 0 80 C0 53.6 0 27.2 0 0 Z " fill="#1D8EFB" transform="translate(0,0)"/>
<path d="M0 0 C13.86 0 27.72 0 42 0 C42 26.07 42 52.14 42 79 C35.23297823 73.36081519 35.23297823 73.36081519 34.1875 70.0625 C33.97480469 69.43472656 33.76210938 68.80695313 33.54296875 68.16015625 C32.37971261 63.53223795 31.85835478 58.9030866 31.5703125 54.1484375 C31.49683594 53.04886719 31.42335938 51.94929688 31.34765625 50.81640625 C31.20076082 48.54596991 31.06000172 46.27512713 30.92578125 44.00390625 C30.00618481 30.6152056 27.76564964 19.63378012 17.9296875 9.96484375 C12.51037706 5.39047956 6.74751916 3.03056184 0 1 C0 0.67 0 0.34 0 0 Z " fill="#000000" transform="translate(508,0)"/>
<path d="M0 0 C10.23 0 20.46 0 31 0 C28.77364249 1.11317875 26.5367409 2.2078048 24.265625 3.2265625 C12.92537571 8.48538277 6.99489925 14.61627612 2 26 C1.34 27.32 0.68 28.64 0 30 C0 20.1 0 10.2 0 0 Z " fill="#000000" transform="translate(0,0)"/>
<path d="M0 0 C1.90688236 2.86032353 3.24542751 5.63670378 4.6875 8.75 C9.94250562 19.20960351 16.4273014 23.26051442 27 28 C27 28.33 27 28.66 27 29 C18.09 29 9.18 29 0 29 C0 19.43 0 9.86 0 0 Z " fill="#000000" transform="translate(0,51)"/>
<path d="M0 0 C0.68449219 0.42023438 1.36898437 0.84046875 2.07421875 1.2734375 C3.98261982 2.00374741 5.89989475 2.71117893 7.82421875 3.3984375 C8.8090625 3.75164062 9.79390625 4.10484375 10.80859375 4.46875 C11.55625 4.73429687 12.30390625 4.99984375 13.07421875 5.2734375 C13.07421875 5.6034375 13.07421875 5.9334375 13.07421875 6.2734375 C4.16421875 6.2734375 -4.74578125 6.2734375 -13.92578125 6.2734375 C-11.46947748 4.63590165 -9.01856843 3.04246319 -6.48828125 1.5234375 C-5.34552734 0.81960937 -5.34552734 0.81960937 -4.1796875 0.1015625 C-1.92578125 -0.7265625 -1.92578125 -0.7265625 0 0 Z " fill="#000000" transform="translate(524.92578125,73.7265625)"/>
</svg>
