<?xml version="1.0" encoding="UTF-8"?>
<svg version="1.1" xmlns="http://www.w3.org/2000/svg" width="550" height="37">
<path d="M0 0 C7.2813918 -0.2300194 14.55013975 -0.42885496 21.83227539 -0.54931641 C24.30699407 -0.59952668 26.78141723 -0.66771247 29.25512695 -0.75439453 C32.81796095 -0.87609069 36.37686939 -0.93248596 39.94140625 -0.9765625 C41.04271378 -1.02817535 42.1440213 -1.07978821 43.27870178 -1.13296509 C50.74832383 -1.1383871 50.74832383 -1.1383871 54.05709839 1.87091064 C56.62346659 5.43090559 58.63105183 9.01058289 60.16659886 13.12849593 C61.72218214 16.79086414 63.14764721 19.20295376 66 22 C72.36726645 23.84403331 78.63321909 23.59440297 85.21629333 23.48101807 C87.21876857 23.49038236 89.22122494 23.50501467 91.22362763 23.52446246 C96.72711173 23.56265393 102.22795861 23.52604043 107.73126638 23.47733045 C113.66516623 23.43787039 119.59876344 23.4676034 125.53269958 23.4889679 C136.48363123 23.51829073 147.43365594 23.49430618 158.38449354 23.44488802 C168.49649318 23.39982156 178.60813513 23.3820313 188.72023201 23.39070892 C189.39074267 23.39127039 190.06125334 23.39183187 190.75208251 23.39241035 C194.15730193 23.39539079 197.56252076 23.39881414 200.96773959 23.40240797 C225.08370311 23.4270632 249.19930691 23.39614833 273.31518555 23.33251953 C296.74262691 23.27083439 320.16988635 23.23434142 343.59741211 23.23193359 C344.31961449 23.23184934 345.04181687 23.23176508 345.78590416 23.23167827 C353.03859239 23.23085992 360.29128057 23.2305535 367.54396884 23.23062215 C382.31838095 23.23075035 397.09279165 23.22746177 411.86720276 23.22210693 C412.88614617 23.22174395 412.88614617 23.22174395 413.9256743 23.22137363 C459.28386496 23.20482369 504.6419458 23.10837724 550 23 C550 27.62 550 32.24 550 37 C368.5 37 187 37 0 37 C0 24.79 0 12.58 0 0 Z " fill="#1C1C1C" transform="translate(0,0)"/>
<path d="M0 0 C162.03 0 324.06 0 491 0 C491 5.94 491 11.88 491 18 C445.28433166 18.29006704 399.56859793 18.56168328 353.8522644 18.71983337 C353.17556122 18.72218034 352.49885803 18.72452731 351.80164869 18.7269454 C337.09477102 18.77782582 322.3878835 18.82491877 307.68098129 18.8681106 C300.46863378 18.88931517 293.25628894 18.9113566 286.04394531 18.93383789 C285.32623357 18.93606079 284.60852182 18.9382837 283.86906124 18.94057396 C260.60921272 19.0130068 237.35006665 19.14068992 214.09064362 19.29705275 C190.18683776 19.45745547 166.28342056 19.56206324 142.37908561 19.59655483 C139.00216199 19.6014534 135.62523969 19.60698923 132.24831772 19.61291313 C131.58369657 19.61405932 130.91907542 19.61520551 130.23431423 19.61638644 C118.87897766 19.63770912 107.5250886 19.72817111 96.17025761 19.83457994 C86.07572857 19.92436578 75.98224366 19.9516201 65.8873442 19.92952342 C60.06005515 19.91862065 54.23629157 19.93545267 48.40962791 20.02649307 C43.07307915 20.10926696 37.74242155 20.1134068 32.40560077 20.05528121 C30.47664928 20.0480999 28.5473296 20.06966541 26.61910261 20.1230141 C14.7693995 20.43177088 14.7693995 20.43177088 10 18 C5.25033322 13.35679487 2.2903412 7.17281722 0 1 C0 0.67 0 0.34 0 0 Z " fill="#8DCC19" transform="translate(59,0)"/>
</svg>
