<svg xmlns="http://www.w3.org/2000/svg" xmlns:xlink="http://www.w3.org/1999/xlink" width="6912" zoomAndPan="magnify" viewBox="0 0 5184 359.999987" height="480" preserveAspectRatio="xMidYMid meet" version="1.0"><defs><g/><clipPath id="f3ae39da1e"><path d="M 0 7.292969 L 5184 7.292969 L 5184 359.792969 L 0 359.792969 Z M 0 7.292969 " clip-rule="nonzero"/></clipPath><clipPath id="2852519d22"><path d="M 545 7.292969 L 5184 7.292969 L 5184 176 L 545 176 Z M 545 7.292969 " clip-rule="nonzero"/></clipPath></defs><rect x="-518.4" width="6220.8" fill="#ffffff" y="-35.999999" height="431.999984" fill-opacity="1"/><rect x="-518.4" width="6220.8" fill="#ffffff" y="-35.999999" height="431.999984" fill-opacity="1"/><g fill="#ffffff" fill-opacity="1"><g transform="translate(2497.079667, 203.823565)"><g><path d="M 0 0 L 9.832031 0 L 9.832031 0.945312 L 0 0.945312 Z M 0 0 "/></g></g></g><g fill="#ffffff" fill-opacity="1"><g transform="translate(2506.359205, 203.823565)"><g><path d="M 6.234375 0.0976562 C 5.210938 0.0976562 4.296875 -0.125 3.488281 -0.570312 C 2.683594 -1.015625 2.050781 -1.640625 1.59375 -2.449219 C 1.132812 -3.253906 0.90625 -4.160156 0.90625 -5.171875 C 0.90625 -6.179688 1.132812 -7.085938 1.59375 -7.882812 C 2.050781 -8.683594 2.683594 -9.308594 3.488281 -9.753906 C 4.296875 -10.199219 5.210938 -10.421875 6.234375 -10.421875 C 7.125 -10.421875 7.921875 -10.246094 8.621094 -9.898438 C 9.324219 -9.550781 9.878906 -9.042969 10.285156 -8.375 L 9.242188 -7.667969 C 8.902344 -8.179688 8.46875 -8.5625 7.945312 -8.820312 C 7.417969 -9.074219 6.847656 -9.203125 6.234375 -9.203125 C 5.484375 -9.203125 4.8125 -9.035156 4.21875 -8.699219 C 3.621094 -8.367188 3.15625 -7.890625 2.820312 -7.273438 C 2.488281 -6.660156 2.320312 -5.957031 2.320312 -5.171875 C 2.320312 -4.371094 2.488281 -3.667969 2.820312 -3.058594 C 3.15625 -2.449219 3.621094 -1.976562 4.21875 -1.640625 C 4.8125 -1.308594 5.484375 -1.140625 6.234375 -1.140625 C 6.847656 -1.140625 7.417969 -1.265625 7.945312 -1.515625 C 8.46875 -1.761719 8.902344 -2.144531 9.242188 -2.65625 L 10.285156 -1.945312 C 9.878906 -1.277344 9.320312 -0.769531 8.613281 -0.421875 C 7.90625 -0.0742188 7.109375 0.0976562 6.234375 0.0976562 Z M 6.234375 0.0976562 "/></g></g></g><g fill="#ffffff" fill-opacity="1"><g transform="translate(2517.427884, 203.823565)"><g><path d="M 3.285156 -8.316406 C 3.613281 -9.011719 4.101562 -9.535156 4.75 -9.890625 C 5.398438 -10.246094 6.199219 -10.421875 7.15625 -10.421875 L 7.15625 -9.0625 L 6.824219 -9.085938 C 5.734375 -9.085938 4.882812 -8.75 4.265625 -8.082031 C 3.652344 -7.414062 3.34375 -6.476562 3.34375 -5.269531 L 3.34375 0 L 1.945312 0 L 1.945312 -10.34375 L 3.285156 -10.34375 Z M 3.285156 -8.316406 "/></g></g></g><g fill="#ffffff" fill-opacity="1"><g transform="translate(2525.056005, 203.823565)"><g><path d="M 6.175781 0.0976562 C 5.179688 0.0976562 4.28125 -0.128906 3.480469 -0.578125 C 2.679688 -1.03125 2.050781 -1.660156 1.59375 -2.457031 C 1.132812 -3.257812 0.90625 -4.160156 0.90625 -5.171875 C 0.90625 -6.179688 1.132812 -7.085938 1.59375 -7.882812 C 2.050781 -8.683594 2.679688 -9.308594 3.480469 -9.753906 C 4.28125 -10.199219 5.179688 -10.421875 6.175781 -10.421875 C 7.171875 -10.421875 8.066406 -10.199219 8.867188 -9.753906 C 9.667969 -9.308594 10.292969 -8.683594 10.746094 -7.882812 C 11.199219 -7.085938 11.425781 -6.179688 11.425781 -5.171875 C 11.425781 -4.160156 11.199219 -3.257812 10.746094 -2.457031 C 10.292969 -1.660156 9.667969 -1.03125 8.867188 -0.578125 C 8.066406 -0.128906 7.171875 0.0976562 6.175781 0.0976562 Z M 6.175781 -1.140625 C 6.90625 -1.140625 7.566406 -1.308594 8.148438 -1.640625 C 8.734375 -1.976562 9.1875 -2.453125 9.515625 -3.066406 C 9.84375 -3.683594 10.007812 -4.382812 10.007812 -5.171875 C 10.007812 -5.957031 9.84375 -6.660156 9.515625 -7.273438 C 9.1875 -7.890625 8.734375 -8.367188 8.148438 -8.699219 C 7.566406 -9.035156 6.90625 -9.203125 6.175781 -9.203125 C 5.441406 -9.203125 4.78125 -9.035156 4.199219 -8.699219 C 3.613281 -8.367188 3.15625 -7.890625 2.820312 -7.273438 C 2.488281 -6.660156 2.320312 -5.957031 2.320312 -5.171875 C 2.320312 -4.382812 2.488281 -3.683594 2.820312 -3.066406 C 3.15625 -2.453125 3.613281 -1.976562 4.199219 -1.640625 C 4.78125 -1.308594 5.441406 -1.140625 6.175781 -1.140625 Z M 6.175781 -1.140625 "/></g></g></g><g fill="#ffffff" fill-opacity="1"><g transform="translate(2537.382936, 203.823565)"><g><path d="M 7.273438 -10.421875 C 8.246094 -10.421875 9.125 -10.203125 9.910156 -9.761719 C 10.695312 -9.324219 11.3125 -8.703125 11.757812 -7.90625 C 12.203125 -7.105469 12.425781 -6.195312 12.425781 -5.171875 C 12.425781 -4.136719 12.203125 -3.21875 11.757812 -2.417969 C 11.3125 -1.617188 10.699219 -1 9.917969 -0.558594 C 9.140625 -0.121094 8.257812 0.0976562 7.273438 0.0976562 C 6.4375 0.0976562 5.679688 -0.0742188 5.003906 -0.421875 C 4.328125 -0.769531 3.773438 -1.277344 3.34375 -1.945312 L 3.34375 3.816406 L 1.945312 3.816406 L 1.945312 -10.34375 L 3.285156 -10.34375 L 3.285156 -8.296875 C 3.703125 -8.980469 4.257812 -9.503906 4.945312 -9.871094 C 5.632812 -10.238281 6.410156 -10.421875 7.273438 -10.421875 Z M 7.175781 -1.140625 C 7.898438 -1.140625 8.554688 -1.308594 9.144531 -1.640625 C 9.734375 -1.976562 10.195312 -2.453125 10.527344 -3.066406 C 10.863281 -3.683594 11.03125 -4.382812 11.03125 -5.171875 C 11.03125 -5.957031 10.863281 -6.65625 10.527344 -7.265625 C 10.195312 -7.875 9.734375 -8.351562 9.144531 -8.691406 C 8.554688 -9.03125 7.898438 -9.203125 7.175781 -9.203125 C 6.441406 -9.203125 5.785156 -9.03125 5.199219 -8.691406 C 4.617188 -8.351562 4.160156 -7.875 3.824219 -7.265625 C 3.488281 -6.65625 3.324219 -5.957031 3.324219 -5.171875 C 3.324219 -4.382812 3.488281 -3.683594 3.824219 -3.066406 C 4.160156 -2.453125 4.617188 -1.976562 5.199219 -1.640625 C 5.785156 -1.308594 6.441406 -1.140625 7.175781 -1.140625 Z M 7.175781 -1.140625 "/></g></g></g><g fill="#ffffff" fill-opacity="1"><g transform="translate(2550.712533, 203.823565)"><g/></g></g><g fill="#ffffff" fill-opacity="1"><g transform="translate(2555.8635, 203.823565)"><g><path d="M 14.84375 -10.421875 C 16.144531 -10.421875 17.160156 -10.046875 17.902344 -9.300781 C 18.644531 -8.554688 19.011719 -7.453125 19.011719 -5.996094 L 19.011719 0 L 17.617188 0 L 17.617188 -5.859375 C 17.617188 -6.933594 17.359375 -7.753906 16.839844 -8.316406 C 16.324219 -8.882812 15.59375 -9.164062 14.648438 -9.164062 C 13.574219 -9.164062 12.726562 -8.832031 12.113281 -8.167969 C 11.496094 -7.507812 11.1875 -6.59375 11.1875 -5.425781 L 11.1875 0 L 9.792969 0 L 9.792969 -5.859375 C 9.792969 -6.933594 9.53125 -7.753906 9.015625 -8.316406 C 8.496094 -8.882812 7.761719 -9.164062 6.804688 -9.164062 C 5.742188 -9.164062 4.898438 -8.832031 4.277344 -8.167969 C 3.652344 -7.507812 3.34375 -6.59375 3.34375 -5.425781 L 3.34375 0 L 1.945312 0 L 1.945312 -10.34375 L 3.285156 -10.34375 L 3.285156 -8.453125 C 3.652344 -9.085938 4.160156 -9.570312 4.816406 -9.910156 C 5.472656 -10.25 6.226562 -10.421875 7.078125 -10.421875 C 7.945312 -10.421875 8.695312 -10.238281 9.328125 -9.871094 C 9.964844 -9.503906 10.441406 -8.960938 10.753906 -8.238281 C 11.136719 -8.921875 11.683594 -9.453125 12.398438 -9.839844 C 13.113281 -10.226562 13.925781 -10.421875 14.84375 -10.421875 Z M 14.84375 -10.421875 "/></g></g></g><g fill="#ffffff" fill-opacity="1"><g transform="translate(2576.76227, 203.823565)"><g><path d="M 10.953125 -4.738281 L 2.300781 -4.738281 C 2.378906 -3.664062 2.792969 -2.796875 3.539062 -2.132812 C 4.285156 -1.472656 5.230469 -1.140625 6.371094 -1.140625 C 7.011719 -1.140625 7.601562 -1.253906 8.140625 -1.484375 C 8.675781 -1.714844 9.144531 -2.050781 9.535156 -2.496094 L 10.324219 -1.59375 C 9.863281 -1.042969 9.289062 -0.621094 8.601562 -0.335938 C 7.914062 -0.046875 7.15625 0.0976562 6.332031 0.0976562 C 5.269531 0.0976562 4.328125 -0.128906 3.507812 -0.578125 C 2.691406 -1.03125 2.050781 -1.660156 1.59375 -2.457031 C 1.132812 -3.257812 0.90625 -4.160156 0.90625 -5.171875 C 0.90625 -6.179688 1.125 -7.085938 1.5625 -7.882812 C 2.003906 -8.683594 2.605469 -9.308594 3.371094 -9.753906 C 4.140625 -10.199219 5 -10.421875 5.957031 -10.421875 C 6.914062 -10.421875 7.773438 -10.199219 8.535156 -9.753906 C 9.292969 -9.308594 9.890625 -8.6875 10.324219 -7.894531 C 10.753906 -7.101562 10.972656 -6.195312 10.972656 -5.171875 Z M 5.957031 -9.222656 C 4.960938 -9.222656 4.125 -8.902344 3.449219 -8.269531 C 2.777344 -7.632812 2.390625 -6.804688 2.300781 -5.78125 L 9.632812 -5.78125 C 9.542969 -6.804688 9.160156 -7.632812 8.484375 -8.269531 C 7.808594 -8.902344 6.96875 -9.222656 5.957031 -9.222656 Z M 5.957031 -9.222656 "/></g></g></g><g fill="#ffffff" fill-opacity="1"><g transform="translate(2588.63701, 203.823565)"><g/></g></g><g fill="#ffffff" fill-opacity="1"><g transform="translate(2593.787981, 203.823565)"><g><path d="M 6.175781 0.0976562 C 5.179688 0.0976562 4.28125 -0.128906 3.480469 -0.578125 C 2.679688 -1.03125 2.050781 -1.660156 1.59375 -2.457031 C 1.132812 -3.257812 0.90625 -4.160156 0.90625 -5.171875 C 0.90625 -6.179688 1.132812 -7.085938 1.59375 -7.882812 C 2.050781 -8.683594 2.679688 -9.308594 3.480469 -9.753906 C 4.28125 -10.199219 5.179688 -10.421875 6.175781 -10.421875 C 7.171875 -10.421875 8.066406 -10.199219 8.867188 -9.753906 C 9.667969 -9.308594 10.292969 -8.683594 10.746094 -7.882812 C 11.199219 -7.085938 11.425781 -6.179688 11.425781 -5.171875 C 11.425781 -4.160156 11.199219 -3.257812 10.746094 -2.457031 C 10.292969 -1.660156 9.667969 -1.03125 8.867188 -0.578125 C 8.066406 -0.128906 7.171875 0.0976562 6.175781 0.0976562 Z M 6.175781 -1.140625 C 6.90625 -1.140625 7.566406 -1.308594 8.148438 -1.640625 C 8.734375 -1.976562 9.1875 -2.453125 9.515625 -3.066406 C 9.84375 -3.683594 10.007812 -4.382812 10.007812 -5.171875 C 10.007812 -5.957031 9.84375 -6.660156 9.515625 -7.273438 C 9.1875 -7.890625 8.734375 -8.367188 8.148438 -8.699219 C 7.566406 -9.035156 6.90625 -9.203125 6.175781 -9.203125 C 5.441406 -9.203125 4.78125 -9.035156 4.199219 -8.699219 C 3.613281 -8.367188 3.15625 -7.890625 2.820312 -7.273438 C 2.488281 -6.660156 2.320312 -5.957031 2.320312 -5.171875 C 2.320312 -4.382812 2.488281 -3.683594 2.820312 -3.066406 C 3.15625 -2.453125 3.613281 -1.976562 4.199219 -1.640625 C 4.78125 -1.308594 5.441406 -1.140625 6.175781 -1.140625 Z M 6.175781 -1.140625 "/></g></g></g><g fill="#ffffff" fill-opacity="1"><g transform="translate(2606.114915, 203.823565)"><g><path d="M 11.265625 -10.34375 L 11.265625 0 L 9.929688 0 L 9.929688 -1.886719 C 9.5625 -1.257812 9.058594 -0.769531 8.414062 -0.421875 C 7.773438 -0.0742188 7.039062 0.0976562 6.214844 0.0976562 C 4.863281 0.0976562 3.796875 -0.277344 3.019531 -1.03125 C 2.238281 -1.785156 1.847656 -2.890625 1.847656 -4.34375 L 1.847656 -10.34375 L 3.246094 -10.34375 L 3.246094 -4.484375 C 3.246094 -3.394531 3.511719 -2.570312 4.050781 -2.003906 C 4.589844 -1.441406 5.355469 -1.160156 6.351562 -1.160156 C 7.4375 -1.160156 8.296875 -1.492188 8.925781 -2.152344 C 9.554688 -2.816406 9.871094 -3.734375 9.871094 -4.914062 L 9.871094 -10.34375 Z M 11.265625 -10.34375 "/></g></g></g><g fill="#ffffff" fill-opacity="1"><g transform="translate(2619.346208, 203.823565)"><g><path d="M 7.394531 -0.628906 C 7.132812 -0.394531 6.804688 -0.214844 6.417969 -0.0898438 C 6.03125 0.0351562 5.628906 0.0976562 5.210938 0.0976562 C 4.242188 0.0976562 3.492188 -0.164062 2.96875 -0.6875 C 2.445312 -1.210938 2.183594 -1.953125 2.183594 -2.910156 L 2.183594 -9.164062 L 0.335938 -9.164062 L 0.335938 -10.34375 L 2.183594 -10.34375 L 2.183594 -12.605469 L 3.578125 -12.605469 L 3.578125 -10.34375 L 6.722656 -10.34375 L 6.722656 -9.164062 L 3.578125 -9.164062 L 3.578125 -2.988281 C 3.578125 -2.371094 3.734375 -1.902344 4.039062 -1.582031 C 4.347656 -1.261719 4.792969 -1.101562 5.367188 -1.101562 C 5.65625 -1.101562 5.933594 -1.148438 6.203125 -1.238281 C 6.472656 -1.332031 6.703125 -1.460938 6.902344 -1.632812 Z M 7.394531 -0.628906 "/></g></g></g><g fill="#ffffff" fill-opacity="1"><g transform="translate(2627.328233, 203.823565)"><g/></g></g><g fill="#ffffff" fill-opacity="1"><g transform="translate(2632.479204, 203.823565)"><g><path d="M 7.214844 -10.421875 C 8.515625 -10.421875 9.546875 -10.042969 10.3125 -9.289062 C 11.078125 -8.535156 11.464844 -7.4375 11.464844 -5.996094 L 11.464844 0 L 10.066406 0 L 10.066406 -5.859375 C 10.066406 -6.933594 9.796875 -7.753906 9.261719 -8.316406 C 8.722656 -8.882812 7.957031 -9.164062 6.960938 -9.164062 C 5.847656 -9.164062 4.964844 -8.832031 4.316406 -8.167969 C 3.667969 -7.507812 3.34375 -6.59375 3.34375 -5.425781 L 3.34375 0 L 1.945312 0 L 1.945312 -14.589844 L 3.34375 -14.589844 L 3.34375 -8.535156 C 3.722656 -9.136719 4.246094 -9.601562 4.914062 -9.929688 C 5.585938 -10.257812 6.351562 -10.421875 7.214844 -10.421875 Z M 7.214844 -10.421875 "/></g></g></g><g fill="#ffffff" fill-opacity="1"><g transform="translate(2645.828478, 203.823565)"><g><path d="M 10.953125 -4.738281 L 2.300781 -4.738281 C 2.378906 -3.664062 2.792969 -2.796875 3.539062 -2.132812 C 4.285156 -1.472656 5.230469 -1.140625 6.371094 -1.140625 C 7.011719 -1.140625 7.601562 -1.253906 8.140625 -1.484375 C 8.675781 -1.714844 9.144531 -2.050781 9.535156 -2.496094 L 10.324219 -1.59375 C 9.863281 -1.042969 9.289062 -0.621094 8.601562 -0.335938 C 7.914062 -0.046875 7.15625 0.0976562 6.332031 0.0976562 C 5.269531 0.0976562 4.328125 -0.128906 3.507812 -0.578125 C 2.691406 -1.03125 2.050781 -1.660156 1.59375 -2.457031 C 1.132812 -3.257812 0.90625 -4.160156 0.90625 -5.171875 C 0.90625 -6.179688 1.125 -7.085938 1.5625 -7.882812 C 2.003906 -8.683594 2.605469 -9.308594 3.371094 -9.753906 C 4.140625 -10.199219 5 -10.421875 5.957031 -10.421875 C 6.914062 -10.421875 7.773438 -10.199219 8.535156 -9.753906 C 9.292969 -9.308594 9.890625 -8.6875 10.324219 -7.894531 C 10.753906 -7.101562 10.972656 -6.195312 10.972656 -5.171875 Z M 5.957031 -9.222656 C 4.960938 -9.222656 4.125 -8.902344 3.449219 -8.269531 C 2.777344 -7.632812 2.390625 -6.804688 2.300781 -5.78125 L 9.632812 -5.78125 C 9.542969 -6.804688 9.160156 -7.632812 8.484375 -8.269531 C 7.808594 -8.902344 6.96875 -9.222656 5.957031 -9.222656 Z M 5.957031 -9.222656 "/></g></g></g><g fill="#ffffff" fill-opacity="1"><g transform="translate(2657.703218, 203.823565)"><g><path d="M 3.285156 -8.316406 C 3.613281 -9.011719 4.101562 -9.535156 4.75 -9.890625 C 5.398438 -10.246094 6.199219 -10.421875 7.15625 -10.421875 L 7.15625 -9.0625 L 6.824219 -9.085938 C 5.734375 -9.085938 4.882812 -8.75 4.265625 -8.082031 C 3.652344 -7.414062 3.34375 -6.476562 3.34375 -5.269531 L 3.34375 0 L 1.945312 0 L 1.945312 -10.34375 L 3.285156 -10.34375 Z M 3.285156 -8.316406 "/></g></g></g><g fill="#ffffff" fill-opacity="1"><g transform="translate(2665.331331, 203.823565)"><g><path d="M 10.953125 -4.738281 L 2.300781 -4.738281 C 2.378906 -3.664062 2.792969 -2.796875 3.539062 -2.132812 C 4.285156 -1.472656 5.230469 -1.140625 6.371094 -1.140625 C 7.011719 -1.140625 7.601562 -1.253906 8.140625 -1.484375 C 8.675781 -1.714844 9.144531 -2.050781 9.535156 -2.496094 L 10.324219 -1.59375 C 9.863281 -1.042969 9.289062 -0.621094 8.601562 -0.335938 C 7.914062 -0.046875 7.15625 0.0976562 6.332031 0.0976562 C 5.269531 0.0976562 4.328125 -0.128906 3.507812 -0.578125 C 2.691406 -1.03125 2.050781 -1.660156 1.59375 -2.457031 C 1.132812 -3.257812 0.90625 -4.160156 0.90625 -5.171875 C 0.90625 -6.179688 1.125 -7.085938 1.5625 -7.882812 C 2.003906 -8.683594 2.605469 -9.308594 3.371094 -9.753906 C 4.140625 -10.199219 5 -10.421875 5.957031 -10.421875 C 6.914062 -10.421875 7.773438 -10.199219 8.535156 -9.753906 C 9.292969 -9.308594 9.890625 -8.6875 10.324219 -7.894531 C 10.753906 -7.101562 10.972656 -6.195312 10.972656 -5.171875 Z M 5.957031 -9.222656 C 4.960938 -9.222656 4.125 -8.902344 3.449219 -8.269531 C 2.777344 -7.632812 2.390625 -6.804688 2.300781 -5.78125 L 9.632812 -5.78125 C 9.542969 -6.804688 9.160156 -7.632812 8.484375 -8.269531 C 7.808594 -8.902344 6.96875 -9.222656 5.957031 -9.222656 Z M 5.957031 -9.222656 "/></g></g></g><g fill="#ffffff" fill-opacity="1"><g transform="translate(2677.088106, 203.823565)"><g><path d="M 0 0 L 9.832031 0 L 9.832031 0.945312 L 0 0.945312 Z M 0 0 "/></g></g></g><g clip-path="url(#f3ae39da1e)"><path fill="#1c1c1c" d="M -19.40625 7.191406 L 466.78125 7.191406 L 603.785156 226.554688 L 5202.199219 226.554688 L 5202.199219 359.75 L -19.40625 359.75 Z M -19.40625 7.191406 " fill-opacity="1" fill-rule="evenodd"/></g><g clip-path="url(#2852519d22)"><path fill="#8dc63f" d="M 545.617188 7.191406 L 5202.199219 7.191406 L 5202.199219 176 L 648.808594 176 Z M 545.617188 7.191406 " fill-opacity="1" fill-rule="evenodd"/></g></svg>