<?xml version="1.0" encoding="UTF-8"?>
<svg version="1.1" xmlns="http://www.w3.org/2000/svg" width="550" height="73">
<path d="M0 0 C-7.12700518 5.22647047 -14.83386595 9.14444163 -22.78125 12.93798828 C-24.2303591 13.63160895 -25.67587788 14.33279504 -27.1171875 15.04248047 C-51.94978586 27.23706002 -79.16385978 35.55406436 -106 42 C-107.27166016 42.30856934 -108.54332031 42.61713867 -109.85351562 42.93505859 C-148.49885588 52.24222632 -187.83997575 58.36185675 -227.27758789 63.16015625 C-235.38344436 64.14826213 -243.47176866 65.19915003 -251.55042839 66.38926792 C-307.52711383 74.49631424 -364.12911433 72.82787896 -420.5362553 72.50418955 C-430.43478897 72.44801707 -440.33327536 72.41025086 -450.23193359 72.38452148 C-451.29020336 72.38176289 -451.29020336 72.38176289 -452.36985232 72.37894856 C-455.9121351 72.36980781 -459.45441854 72.36096317 -462.99670243 72.35226524 C-491.9980331 72.28067638 -520.99901165 72.15773423 -550 72 C-550 71.01 -550 70.02 -550 69 C-540.45078743 66.1064105 -530.94652066 63.80972948 -521.125 62 C-520.44025604 61.87337982 -519.75551208 61.74675964 -519.05001831 61.61630249 C-462.23241184 51.17955104 -404.23301268 50.63044921 -346.64453125 49.50390625 C-345.57294014 49.48283247 -344.50134903 49.46175869 -343.39728546 49.44004631 C-332.60587342 49.22827487 -321.81442645 49.02185605 -311.02250195 48.83786964 C-275.54441407 48.22875188 -240.0497499 47.28356614 -204.6875 44.1875 C-203.21878448 44.06202789 -203.21878448 44.06202789 -201.72039795 43.934021 C-182.06007947 42.24377804 -162.50554528 39.98788451 -143 37 C-142.28533569 36.8906311 -141.57067139 36.78126221 -140.83435059 36.6685791 C-95.08994329 29.60477946 -47.74550782 18.9427819 -5.44116211 -0.1730957 C-3 -1 -3 -1 0 0 Z " fill="#28224e" transform="translate(550,1)"/>
<path d="M0 0 C0 20.46 0 40.92 0 62 C-35.31 62 -70.62 62 -107 62 C-104.47779235 59.47779235 -102.22335929 58.82468913 -98.875 57.5625 C-78.92233043 49.76019387 -60.24690035 40.21019676 -42 29 C-41.28070313 28.55881836 -40.56140625 28.11763672 -39.8203125 27.66308594 C-27.70859696 20.17838623 -16.18720388 11.84052368 -4.99780273 3.04711914 C-1.10183887 0 -1.10183887 0 0 0 Z " fill="#8DCC19" transform="translate(550,11)"/>
<path d="M0 0 C0.99 0.495 0.99 0.495 2 1 C-32.09173494 27.34592969 -72.01780073 43.36629501 -114 52 C-115.15445114 52.25697159 -116.30890228 52.51394318 -117.49833679 52.77870178 C-130.22891004 55.36706104 -142.67623983 55.38562648 -155.62890625 55.29296875 C-157.95873234 55.28735999 -160.28856202 55.28309596 -162.61839294 55.28010559 C-168.69280095 55.26875757 -174.76698708 55.23937896 -180.84130859 55.20599365 C-187.06279501 55.17507398 -193.28431795 55.16155386 -199.50585938 55.14648438 C-211.67066936 55.1144979 -223.83531609 55.06342589 -236 55 C-236 54.67 -236 54.34 -236 54 C-235.39470963 53.93006836 -234.78941925 53.86013672 -234.16578674 53.78808594 C-113.72647101 40.21493609 -113.72647101 40.21493609 0 0 Z " fill="#28224e" transform="translate(529,18)"/>
</svg>
