<?xml version="1.0" encoding="UTF-8"?>
<svg version="1.1" xmlns="http://www.w3.org/2000/svg" width="550" height="155">
<path d="M0 0 C181.5 0 363 0 550 0 C550 43.56 550 87.12 550 132 C540.595 127.545 540.595 127.545 531 123 C526.95547325 121.36748193 522.98226307 119.80636176 518.875 118.375 C517.82844238 118.00656982 516.78188477 117.63813965 515.70361328 117.25854492 C476.80689542 103.80547918 435.18638554 96.67113983 394 96 C392.98115723 95.97953613 391.96231445 95.95907227 390.91259766 95.93798828 C336.26268168 94.97754677 283.45660321 103.28224702 230.25 115.0625 C191.38126074 123.662406 151.94546975 131.22737753 112 132 C111.18241211 132.02046387 110.36482422 132.04092773 109.52246094 132.06201172 C73.68630219 132.86889211 28.69714529 131.15841499 1 105 C-14.65318569 73.69362862 0 35.00158727 0 0 Z " fill="#28224e" transform="translate(0,0)"/>
</svg>
  