<?xml version="1.0" encoding="UTF-8"?>
<svg version="1.1" xmlns="http://www.w3.org/2000/svg" width="550" height="102">
<path d="M0 0 C181.5 0 363 0 550 0 C548.41208313 3.17583375 545.17574934 3.53856964 541.9765625 4.609375 C541.25260788 4.85680954 540.52865326 5.10424408 539.78276062 5.35917664 C537.40043453 6.16731636 535.01362594 6.96068477 532.625 7.75 C531.80768402 8.02111603 530.99036804 8.29223206 530.14828491 8.57156372 C488.36889633 22.35529239 444.6745519 26.93571844 400.9140625 29.01953125 C400.02305029 29.06232712 399.13203808 29.10512299 398.2140255 29.1492157 C375.59022062 30.21940188 352.95630665 30.61190096 330.3125 31 C305.76338185 31.42211019 281.23086599 31.9328072 256.69921875 32.98046875 C255.73964075 33.02101883 254.78006275 33.06156891 253.79140663 33.10334778 C174.55203916 36.49552931 95.88637932 48.44429957 8.16503906 88.05493164 C7.37452148 88.44414795 6.58400391 88.83336426 5.76953125 89.234375 C5.08479736 89.57694336 4.40006348 89.91951172 3.69458008 90.27246094 C2 91 2 91 0 91 C0 60.97 0 30.94 0 0 Z " fill="#0545C4" transform="translate(0,11)"/>
<path d="M0 0 C109.23 0 218.46 0 331 0 C331 0.33 331 0.66 331 1 C323.60461517 1.89955831 316.20872076 2.7948412 308.8125 3.6875 C307.1235965 3.89149414 307.1235965 3.89149414 305.40057373 4.09960938 C290.56433541 5.88868286 275.72260343 7.59784106 260.865448 9.20333862 C244.62916113 10.96096337 228.43199896 12.92082926 212.25 15.125 C210.8931308 15.30857056 210.8931308 15.30857056 209.5088501 15.49584961 C169.08263655 20.9895043 128.76140718 29.18367981 90 42 C88.4543335 42.50587646 88.4543335 42.50587646 86.87744141 43.02197266 C61.9502597 51.27359432 34.31586292 61.91722878 14.5090332 79.72509766 C13 81 13 81 10.4375 82.4375 C7.41130125 84.37737099 5.53738048 86.76370772 3.33203125 89.57421875 C2.89246094 90.04472656 2.45289063 90.51523438 2 91 C1.34 91 0.68 91 0 91 C0 60.97 0 30.94 0 0 Z " fill="#0883F4" transform="translate(0,11)"/>
<path d="M0 0 C1.15312626 -0.00256327 1.15312626 -0.00256327 2.329548 -0.00517833 C4.8952606 -0.00846216 7.46070936 0.00251211 10.02639771 0.01345825 C11.86962376 0.01402261 13.71285026 0.01370533 15.55607605 0.01257324 C20.55353472 0.01199967 25.55089729 0.02375475 30.54833364 0.03772116 C35.77336737 0.05022774 40.99840332 0.05139896 46.22344971 0.05377197 C56.11495079 0.05998695 66.00640764 0.07639803 75.89788926 0.09647095 C87.16020212 0.11882939 98.4225171 0.12982325 109.68484664 0.13986182 C132.84966552 0.16076422 156.01444515 0.19594057 179.17922974 0.24050903 C179.17922974 0.57050903 179.17922974 0.90050903 179.17922974 1.24050903 C171.78384491 2.14006734 164.3879505 3.03535024 156.99172974 3.92800903 C155.30282623 4.13200317 155.30282623 4.13200317 153.57980347 4.34011841 C138.74356514 6.12919189 123.90183316 7.8383501 109.04467773 9.44384766 C92.80839087 11.2014724 76.6112287 13.16133829 60.42922974 15.36550903 C59.07236053 15.54907959 59.07236053 15.54907959 57.68807983 15.73635864 C17.26186629 21.23001334 -23.05936308 29.42418885 -61.82077026 42.24050903 C-63.36643677 42.7463855 -63.36643677 42.7463855 -64.94332886 43.26248169 C-90.67600412 51.78074513 -118.42507985 62.85827991 -138.82077026 81.24050903 C-139.48077026 80.91050903 -140.14077026 80.58050903 -140.82077026 80.24050903 C-133.04824381 72.93754698 -125.21139289 65.83697804 -116.82077026 59.24050903 C-116.21281616 58.76001099 -115.60486206 58.27951294 -114.97848511 57.78445435 C-84.13912894 33.49136642 -50.72777764 15.55220529 -13.82077026 2.24050903 C-12.93567213 1.89512651 -12.050574 1.549744 -11.13865471 1.19389534 C-7.35991048 0.10808206 -3.89263533 -0.03193394 0 0 Z " fill="#0354F4" transform="translate(151.82077026367188,10.759490966796875)"/>
</svg>
