<svg xmlns="http://www.w3.org/2000/svg" xmlns:xlink="http://www.w3.org/1999/xlink" width="6910" zoomAndPan="magnify" viewBox="0 0 5182.5 735" height="980" preserveAspectRatio="xMidYMid meet" version="1.0"><defs><g/><clipPath id="7b520f16d8"><path d="M 0 0.0351562 L 5182 0.0351562 L 5182 734.964844 L 0 734.964844 Z M 0 0.0351562 " clip-rule="nonzero"/></clipPath><clipPath id="17cf1e23df"><path d="M 0 38.957031 L 5182 38.957031 L 5182 734.890625 L 0 734.890625 Z M 0 38.957031 " clip-rule="nonzero"/></clipPath><clipPath id="afde2b9d9b"><path d="M 2730 215 L 5014 215 L 5014 734.890625 L 2730 734.890625 Z M 2730 215 " clip-rule="nonzero"/></clipPath><clipPath id="a790268774"><path d="M 4179 148 L 5182 148 L 5182 734.890625 L 4179 734.890625 Z M 4179 148 " clip-rule="nonzero"/></clipPath></defs><g clip-path="url(#7b520f16d8)"><path fill="#ffffff" d="M 0 0.0351562 L 5182 0.0351562 L 5182 734.964844 L 0 734.964844 Z M 0 0.0351562 " fill-opacity="1" fill-rule="nonzero"/><path fill="#ffffff" d="M 0 0.0351562 L 5182 0.0351562 L 5182 734.964844 L 0 734.964844 Z M 0 0.0351562 " fill-opacity="1" fill-rule="nonzero"/></g><g fill="#ffffff" fill-opacity="1"><g transform="translate(2545.488997, 370.234663)"><g><path d="M 0 0 L 4.699219 0 L 4.699219 0.453125 L 0 0.453125 Z M 0 0 "/></g></g></g><g fill="#ffffff" fill-opacity="1"><g transform="translate(2549.92599, 370.234663)"><g><path d="M 2.980469 0.046875 C 2.492188 0.046875 2.054688 -0.0585938 1.667969 -0.273438 C 1.285156 -0.484375 0.980469 -0.785156 0.761719 -1.171875 C 0.542969 -1.554688 0.433594 -1.988281 0.433594 -2.472656 C 0.433594 -2.957031 0.542969 -3.386719 0.761719 -3.769531 C 0.980469 -4.152344 1.285156 -4.449219 1.667969 -4.664062 C 2.054688 -4.875 2.492188 -4.984375 2.980469 -4.984375 C 3.40625 -4.984375 3.789062 -4.898438 4.121094 -4.734375 C 4.457031 -4.566406 4.722656 -4.324219 4.917969 -4.003906 L 4.417969 -3.667969 C 4.253906 -3.910156 4.050781 -4.09375 3.796875 -4.214844 C 3.546875 -4.339844 3.273438 -4.398438 2.980469 -4.398438 C 2.621094 -4.398438 2.300781 -4.320312 2.015625 -4.160156 C 1.730469 -4 1.507812 -3.773438 1.347656 -3.480469 C 1.1875 -3.183594 1.109375 -2.847656 1.109375 -2.472656 C 1.109375 -2.089844 1.1875 -1.753906 1.347656 -1.460938 C 1.507812 -1.171875 1.730469 -0.945312 2.015625 -0.785156 C 2.300781 -0.625 2.621094 -0.546875 2.980469 -0.546875 C 3.273438 -0.546875 3.546875 -0.605469 3.796875 -0.722656 C 4.050781 -0.84375 4.253906 -1.023438 4.417969 -1.269531 L 4.917969 -0.929688 C 4.722656 -0.609375 4.457031 -0.367188 4.117188 -0.203125 C 3.78125 -0.0351562 3.398438 0.046875 2.980469 0.046875 Z M 2.980469 0.046875 "/></g></g></g><g fill="#ffffff" fill-opacity="1"><g transform="translate(2555.218457, 370.234663)"><g><path d="M 1.570312 -3.976562 C 1.726562 -4.308594 1.960938 -4.558594 2.269531 -4.730469 C 2.582031 -4.898438 2.964844 -4.984375 3.421875 -4.984375 L 3.421875 -4.335938 L 3.261719 -4.34375 C 2.742188 -4.34375 2.335938 -4.183594 2.039062 -3.863281 C 1.746094 -3.542969 1.597656 -3.097656 1.597656 -2.519531 L 1.597656 0 L 0.929688 0 L 0.929688 -4.945312 L 1.570312 -4.945312 Z M 1.570312 -3.976562 "/></g></g></g><g fill="#ffffff" fill-opacity="1"><g transform="translate(2558.865827, 370.234663)"><g><path d="M 2.953125 0.046875 C 2.476562 0.046875 2.046875 -0.0625 1.664062 -0.277344 C 1.28125 -0.492188 0.980469 -0.792969 0.761719 -1.175781 C 0.542969 -1.558594 0.433594 -1.988281 0.433594 -2.472656 C 0.433594 -2.957031 0.542969 -3.386719 0.761719 -3.769531 C 0.980469 -4.152344 1.28125 -4.449219 1.664062 -4.664062 C 2.046875 -4.875 2.476562 -4.984375 2.953125 -4.984375 C 3.429688 -4.984375 3.859375 -4.875 4.238281 -4.664062 C 4.621094 -4.449219 4.921875 -4.152344 5.136719 -3.769531 C 5.355469 -3.386719 5.460938 -2.957031 5.460938 -2.472656 C 5.460938 -1.988281 5.355469 -1.558594 5.136719 -1.175781 C 4.921875 -0.792969 4.621094 -0.492188 4.238281 -0.277344 C 3.859375 -0.0625 3.429688 0.046875 2.953125 0.046875 Z M 2.953125 -0.546875 C 3.304688 -0.546875 3.617188 -0.625 3.898438 -0.785156 C 4.175781 -0.945312 4.394531 -1.171875 4.550781 -1.464844 C 4.707031 -1.761719 4.785156 -2.097656 4.785156 -2.472656 C 4.785156 -2.847656 4.707031 -3.183594 4.550781 -3.480469 C 4.394531 -3.773438 4.175781 -4 3.898438 -4.160156 C 3.617188 -4.320312 3.304688 -4.398438 2.953125 -4.398438 C 2.601562 -4.398438 2.285156 -4.320312 2.007812 -4.160156 C 1.726562 -4 1.507812 -3.773438 1.347656 -3.480469 C 1.1875 -3.183594 1.109375 -2.847656 1.109375 -2.472656 C 1.109375 -2.097656 1.1875 -1.761719 1.347656 -1.464844 C 1.507812 -1.171875 1.726562 -0.945312 2.007812 -0.785156 C 2.285156 -0.625 2.601562 -0.546875 2.953125 -0.546875 Z M 2.953125 -0.546875 "/></g></g></g><g fill="#ffffff" fill-opacity="1"><g transform="translate(2564.759925, 370.234663)"><g><path d="M 3.480469 -4.984375 C 3.941406 -4.984375 4.363281 -4.878906 4.738281 -4.667969 C 5.113281 -4.457031 5.410156 -4.160156 5.621094 -3.78125 C 5.835938 -3.398438 5.941406 -2.960938 5.941406 -2.472656 C 5.941406 -1.976562 5.835938 -1.539062 5.621094 -1.15625 C 5.410156 -0.773438 5.117188 -0.476562 4.742188 -0.269531 C 4.371094 -0.0585938 3.949219 0.046875 3.480469 0.046875 C 3.078125 0.046875 2.714844 -0.0351562 2.394531 -0.203125 C 2.070312 -0.367188 1.804688 -0.609375 1.597656 -0.929688 L 1.597656 1.824219 L 0.929688 1.824219 L 0.929688 -4.945312 L 1.570312 -4.945312 L 1.570312 -3.96875 C 1.769531 -4.292969 2.035156 -4.542969 2.363281 -4.71875 C 2.695312 -4.894531 3.066406 -4.984375 3.480469 -4.984375 Z M 3.429688 -0.546875 C 3.777344 -0.546875 4.089844 -0.625 4.371094 -0.785156 C 4.652344 -0.945312 4.875 -1.171875 5.035156 -1.464844 C 5.195312 -1.761719 5.273438 -2.097656 5.273438 -2.472656 C 5.273438 -2.847656 5.195312 -3.183594 5.035156 -3.472656 C 4.875 -3.765625 4.652344 -3.992188 4.371094 -4.15625 C 4.089844 -4.320312 3.777344 -4.398438 3.429688 -4.398438 C 3.082031 -4.398438 2.765625 -4.320312 2.488281 -4.15625 C 2.207031 -3.992188 1.988281 -3.765625 1.828125 -3.472656 C 1.667969 -3.183594 1.589844 -2.847656 1.589844 -2.472656 C 1.589844 -2.097656 1.667969 -1.761719 1.828125 -1.464844 C 1.988281 -1.171875 2.207031 -0.945312 2.488281 -0.785156 C 2.765625 -0.625 3.082031 -0.546875 3.429688 -0.546875 Z M 3.429688 -0.546875 "/></g></g></g><g fill="#ffffff" fill-opacity="1"><g transform="translate(2571.133445, 370.234663)"><g/></g></g><g fill="#ffffff" fill-opacity="1"><g transform="translate(2573.59637, 370.234663)"><g><path d="M 7.097656 -4.984375 C 7.71875 -4.984375 8.207031 -4.804688 8.558594 -4.445312 C 8.914062 -4.089844 9.089844 -3.5625 9.089844 -2.867188 L 9.089844 0 L 8.421875 0 L 8.421875 -2.800781 C 8.421875 -3.316406 8.300781 -3.707031 8.050781 -3.976562 C 7.804688 -4.246094 7.457031 -4.382812 7.003906 -4.382812 C 6.488281 -4.382812 6.085938 -4.222656 5.792969 -3.90625 C 5.496094 -3.589844 5.347656 -3.152344 5.347656 -2.59375 L 5.347656 0 L 4.683594 0 L 4.683594 -2.800781 C 4.683594 -3.316406 4.558594 -3.707031 4.3125 -3.976562 C 4.0625 -4.246094 3.710938 -4.382812 3.253906 -4.382812 C 2.746094 -4.382812 2.34375 -4.222656 2.042969 -3.90625 C 1.746094 -3.589844 1.597656 -3.152344 1.597656 -2.59375 L 1.597656 0 L 0.929688 0 L 0.929688 -4.945312 L 1.570312 -4.945312 L 1.570312 -4.042969 C 1.746094 -4.34375 1.988281 -4.574219 2.304688 -4.738281 C 2.617188 -4.902344 2.976562 -4.984375 3.382812 -4.984375 C 3.796875 -4.984375 4.15625 -4.894531 4.460938 -4.71875 C 4.765625 -4.542969 4.992188 -4.285156 5.144531 -3.9375 C 5.324219 -4.265625 5.585938 -4.519531 5.925781 -4.707031 C 6.269531 -4.890625 6.660156 -4.984375 7.097656 -4.984375 Z M 7.097656 -4.984375 "/></g></g></g><g fill="#ffffff" fill-opacity="1"><g transform="translate(2583.589075, 370.234663)"><g><path d="M 5.238281 -2.265625 L 1.101562 -2.265625 C 1.136719 -1.75 1.335938 -1.335938 1.691406 -1.019531 C 2.050781 -0.703125 2.5 -0.546875 3.046875 -0.546875 C 3.351562 -0.546875 3.636719 -0.601562 3.890625 -0.710938 C 4.148438 -0.820312 4.371094 -0.980469 4.558594 -1.195312 L 4.9375 -0.761719 C 4.714844 -0.5 4.441406 -0.296875 4.113281 -0.160156 C 3.785156 -0.0234375 3.421875 0.046875 3.027344 0.046875 C 2.519531 0.046875 2.070312 -0.0625 1.679688 -0.277344 C 1.285156 -0.492188 0.980469 -0.792969 0.761719 -1.175781 C 0.542969 -1.558594 0.433594 -1.988281 0.433594 -2.472656 C 0.433594 -2.957031 0.539062 -3.386719 0.746094 -3.769531 C 0.957031 -4.152344 1.246094 -4.449219 1.613281 -4.664062 C 1.980469 -4.875 2.390625 -4.984375 2.847656 -4.984375 C 3.304688 -4.984375 3.714844 -4.875 4.082031 -4.664062 C 4.445312 -4.449219 4.730469 -4.152344 4.9375 -3.773438 C 5.144531 -3.394531 5.246094 -2.960938 5.246094 -2.472656 Z M 2.847656 -4.410156 C 2.371094 -4.410156 1.972656 -4.257812 1.648438 -3.953125 C 1.328125 -3.648438 1.144531 -3.253906 1.101562 -2.765625 L 4.605469 -2.765625 C 4.5625 -3.253906 4.378906 -3.648438 4.058594 -3.953125 C 3.734375 -4.257812 3.332031 -4.410156 2.847656 -4.410156 Z M 2.847656 -4.410156 "/></g></g></g><g fill="#ffffff" fill-opacity="1"><g transform="translate(2589.266958, 370.234663)"><g/></g></g><g fill="#ffffff" fill-opacity="1"><g transform="translate(2591.729884, 370.234663)"><g><path d="M 2.953125 0.046875 C 2.476562 0.046875 2.046875 -0.0625 1.664062 -0.277344 C 1.28125 -0.492188 0.980469 -0.792969 0.761719 -1.175781 C 0.542969 -1.558594 0.433594 -1.988281 0.433594 -2.472656 C 0.433594 -2.957031 0.542969 -3.386719 0.761719 -3.769531 C 0.980469 -4.152344 1.28125 -4.449219 1.664062 -4.664062 C 2.046875 -4.875 2.476562 -4.984375 2.953125 -4.984375 C 3.429688 -4.984375 3.859375 -4.875 4.238281 -4.664062 C 4.621094 -4.449219 4.921875 -4.152344 5.136719 -3.769531 C 5.355469 -3.386719 5.460938 -2.957031 5.460938 -2.472656 C 5.460938 -1.988281 5.355469 -1.558594 5.136719 -1.175781 C 4.921875 -0.792969 4.621094 -0.492188 4.238281 -0.277344 C 3.859375 -0.0625 3.429688 0.046875 2.953125 0.046875 Z M 2.953125 -0.546875 C 3.304688 -0.546875 3.617188 -0.625 3.898438 -0.785156 C 4.175781 -0.945312 4.394531 -1.171875 4.550781 -1.464844 C 4.707031 -1.761719 4.785156 -2.097656 4.785156 -2.472656 C 4.785156 -2.847656 4.707031 -3.183594 4.550781 -3.480469 C 4.394531 -3.773438 4.175781 -4 3.898438 -4.160156 C 3.617188 -4.320312 3.304688 -4.398438 2.953125 -4.398438 C 2.601562 -4.398438 2.285156 -4.320312 2.007812 -4.160156 C 1.726562 -4 1.507812 -3.773438 1.347656 -3.480469 C 1.1875 -3.183594 1.109375 -2.847656 1.109375 -2.472656 C 1.109375 -2.097656 1.1875 -1.761719 1.347656 -1.464844 C 1.507812 -1.171875 1.726562 -0.945312 2.007812 -0.785156 C 2.285156 -0.625 2.601562 -0.546875 2.953125 -0.546875 Z M 2.953125 -0.546875 "/></g></g></g><g fill="#ffffff" fill-opacity="1"><g transform="translate(2597.623983, 370.234663)"><g><path d="M 5.386719 -4.945312 L 5.386719 0 L 4.746094 0 L 4.746094 -0.902344 C 4.574219 -0.601562 4.332031 -0.367188 4.023438 -0.203125 C 3.714844 -0.0351562 3.367188 0.046875 2.972656 0.046875 C 2.324219 0.046875 1.816406 -0.132812 1.441406 -0.492188 C 1.070312 -0.855469 0.882812 -1.382812 0.882812 -2.078125 L 0.882812 -4.945312 L 1.550781 -4.945312 L 1.550781 -2.144531 C 1.550781 -1.625 1.679688 -1.226562 1.9375 -0.957031 C 2.195312 -0.6875 2.558594 -0.554688 3.035156 -0.554688 C 3.558594 -0.554688 3.96875 -0.714844 4.269531 -1.03125 C 4.570312 -1.347656 4.71875 -1.785156 4.71875 -2.351562 L 4.71875 -4.945312 Z M 5.386719 -4.945312 "/></g></g></g><g fill="#ffffff" fill-opacity="1"><g transform="translate(2603.9505, 370.234663)"><g><path d="M 3.535156 -0.300781 C 3.410156 -0.1875 3.253906 -0.101562 3.070312 -0.0429688 C 2.882812 0.015625 2.691406 0.046875 2.492188 0.046875 C 2.027344 0.046875 1.671875 -0.078125 1.417969 -0.328125 C 1.167969 -0.578125 1.042969 -0.933594 1.042969 -1.390625 L 1.042969 -4.382812 L 0.160156 -4.382812 L 0.160156 -4.945312 L 1.042969 -4.945312 L 1.042969 -6.027344 L 1.710938 -6.027344 L 1.710938 -4.945312 L 3.214844 -4.945312 L 3.214844 -4.382812 L 1.710938 -4.382812 L 1.710938 -1.429688 C 1.710938 -1.132812 1.785156 -0.910156 1.933594 -0.757812 C 2.078125 -0.601562 2.289062 -0.527344 2.566406 -0.527344 C 2.703125 -0.527344 2.835938 -0.546875 2.964844 -0.59375 C 3.09375 -0.636719 3.207031 -0.699219 3.300781 -0.78125 Z M 3.535156 -0.300781 "/></g></g></g><g fill="#ffffff" fill-opacity="1"><g transform="translate(2607.767089, 370.234663)"><g/></g></g><g fill="#ffffff" fill-opacity="1"><g transform="translate(2610.230015, 370.234663)"><g><path d="M 3.449219 -4.984375 C 4.070312 -4.984375 4.566406 -4.800781 4.929688 -4.441406 C 5.296875 -4.082031 5.480469 -3.558594 5.480469 -2.867188 L 5.480469 0 L 4.8125 0 L 4.8125 -2.800781 C 4.8125 -3.316406 4.683594 -3.707031 4.429688 -3.976562 C 4.171875 -4.246094 3.804688 -4.382812 3.328125 -4.382812 C 2.796875 -4.382812 2.375 -4.222656 2.0625 -3.90625 C 1.753906 -3.589844 1.597656 -3.152344 1.597656 -2.59375 L 1.597656 0 L 0.929688 0 L 0.929688 -6.976562 L 1.597656 -6.976562 L 1.597656 -4.082031 C 1.78125 -4.367188 2.03125 -4.589844 2.351562 -4.746094 C 2.671875 -4.90625 3.035156 -4.984375 3.449219 -4.984375 Z M 3.449219 -4.984375 "/></g></g></g><g fill="#ffffff" fill-opacity="1"><g transform="translate(2616.612944, 370.234663)"><g><path d="M 5.238281 -2.265625 L 1.101562 -2.265625 C 1.136719 -1.75 1.335938 -1.335938 1.691406 -1.019531 C 2.050781 -0.703125 2.5 -0.546875 3.046875 -0.546875 C 3.351562 -0.546875 3.636719 -0.601562 3.890625 -0.710938 C 4.148438 -0.820312 4.371094 -0.980469 4.558594 -1.195312 L 4.9375 -0.761719 C 4.714844 -0.5 4.441406 -0.296875 4.113281 -0.160156 C 3.785156 -0.0234375 3.421875 0.046875 3.027344 0.046875 C 2.519531 0.046875 2.070312 -0.0625 1.679688 -0.277344 C 1.285156 -0.492188 0.980469 -0.792969 0.761719 -1.175781 C 0.542969 -1.558594 0.433594 -1.988281 0.433594 -2.472656 C 0.433594 -2.957031 0.539062 -3.386719 0.746094 -3.769531 C 0.957031 -4.152344 1.246094 -4.449219 1.613281 -4.664062 C 1.980469 -4.875 2.390625 -4.984375 2.847656 -4.984375 C 3.304688 -4.984375 3.714844 -4.875 4.082031 -4.664062 C 4.445312 -4.449219 4.730469 -4.152344 4.9375 -3.773438 C 5.144531 -3.394531 5.246094 -2.960938 5.246094 -2.472656 Z M 2.847656 -4.410156 C 2.371094 -4.410156 1.972656 -4.257812 1.648438 -3.953125 C 1.328125 -3.648438 1.144531 -3.253906 1.101562 -2.765625 L 4.605469 -2.765625 C 4.5625 -3.253906 4.378906 -3.648438 4.058594 -3.953125 C 3.734375 -4.257812 3.332031 -4.410156 2.847656 -4.410156 Z M 2.847656 -4.410156 "/></g></g></g><g fill="#ffffff" fill-opacity="1"><g transform="translate(2622.290827, 370.234663)"><g><path d="M 1.570312 -3.976562 C 1.726562 -4.308594 1.960938 -4.558594 2.269531 -4.730469 C 2.582031 -4.898438 2.964844 -4.984375 3.421875 -4.984375 L 3.421875 -4.335938 L 3.261719 -4.34375 C 2.742188 -4.34375 2.335938 -4.183594 2.039062 -3.863281 C 1.746094 -3.542969 1.597656 -3.097656 1.597656 -2.519531 L 1.597656 0 L 0.929688 0 L 0.929688 -4.945312 L 1.570312 -4.945312 Z M 1.570312 -3.976562 "/></g></g></g><g fill="#ffffff" fill-opacity="1"><g transform="translate(2625.938194, 370.234663)"><g><path d="M 5.238281 -2.265625 L 1.101562 -2.265625 C 1.136719 -1.75 1.335938 -1.335938 1.691406 -1.019531 C 2.050781 -0.703125 2.5 -0.546875 3.046875 -0.546875 C 3.351562 -0.546875 3.636719 -0.601562 3.890625 -0.710938 C 4.148438 -0.820312 4.371094 -0.980469 4.558594 -1.195312 L 4.9375 -0.761719 C 4.714844 -0.5 4.441406 -0.296875 4.113281 -0.160156 C 3.785156 -0.0234375 3.421875 0.046875 3.027344 0.046875 C 2.519531 0.046875 2.070312 -0.0625 1.679688 -0.277344 C 1.285156 -0.492188 0.980469 -0.792969 0.761719 -1.175781 C 0.542969 -1.558594 0.433594 -1.988281 0.433594 -2.472656 C 0.433594 -2.957031 0.539062 -3.386719 0.746094 -3.769531 C 0.957031 -4.152344 1.246094 -4.449219 1.613281 -4.664062 C 1.980469 -4.875 2.390625 -4.984375 2.847656 -4.984375 C 3.304688 -4.984375 3.714844 -4.875 4.082031 -4.664062 C 4.445312 -4.449219 4.730469 -4.152344 4.9375 -3.773438 C 5.144531 -3.394531 5.246094 -2.960938 5.246094 -2.472656 Z M 2.847656 -4.410156 C 2.371094 -4.410156 1.972656 -4.257812 1.648438 -3.953125 C 1.328125 -3.648438 1.144531 -3.253906 1.101562 -2.765625 L 4.605469 -2.765625 C 4.5625 -3.253906 4.378906 -3.648438 4.058594 -3.953125 C 3.734375 -4.257812 3.332031 -4.410156 2.847656 -4.410156 Z M 2.847656 -4.410156 "/></g></g></g><g fill="#ffffff" fill-opacity="1"><g transform="translate(2631.559673, 370.234663)"><g><path d="M 0 0 L 4.699219 0 L 4.699219 0.453125 L 0 0.453125 Z M 0 0 "/></g></g></g><g clip-path="url(#17cf1e23df)"><path fill="#1c1c1c" d="M 2147.832031 734.890625 C 2228.039062 726.191406 2315.898438 717.320312 2409.675781 707.75 C 3220.265625 625.804688 4479.03125 498.449219 5200.890625 42.089844 L 5200.890625 38.957031 C 4105.144531 495.140625 3000.347656 511.84375 1975.066406 527.328125 C 1260.691406 538.117188 585.289062 548.382812 -18.605469 707.402344 L -18.605469 734.890625 Z M 2147.832031 734.890625 " fill-opacity="1" fill-rule="evenodd"/></g><g clip-path="url(#afde2b9d9b)"><path fill="#1c1c1c" d="M 5013.160156 215.203125 C 4363.507812 531.679688 3444.875 658.164062 2730.5 734.890625 L 3663.746094 734.890625 C 3669.316406 734.195312 3674.882812 733.5 3680.449219 732.804688 C 4088.789062 679.214844 4401.089844 576.742188 4672.503906 431.984375 C 4749.925781 390.578125 4824.214844 345.863281 4896.246094 297.84375 C 4935.042969 271.574219 4973.839844 244.085938 5013.160156 215.203125 Z M 5013.160156 215.203125 " fill-opacity="1" fill-rule="evenodd"/></g><g clip-path="url(#a790268774)"><path fill="#8dc63f" d="M 4917.992188 356.824219 C 4839.699219 409.542969 4762.277344 457.214844 4685.203125 500.882812 C 4516.613281 596.226562 4350.109375 671.5625 4179.78125 734.890625 L 5200.890625 734.890625 L 5200.890625 148.394531 C 5108.328125 223.554688 5015.074219 293.148438 4917.992188 356.824219 Z M 4917.992188 356.824219 " fill-opacity="1" fill-rule="evenodd"/></g><g fill="#8dc63f" fill-opacity="1"><g transform="translate(4825.636121, 573.274606)"><g><path d="M 0 0 L 5.085938 0 L 5.085938 0.488281 L 0 0.488281 Z M 0 0 "/></g></g></g><g fill="#8dc63f" fill-opacity="1"><g transform="translate(4830.435268, 573.274606)"><g><path d="M 3.222656 0.0507812 C 2.695312 0.0507812 2.222656 -0.0625 1.804688 -0.292969 C 1.386719 -0.527344 1.0625 -0.847656 0.824219 -1.265625 C 0.585938 -1.683594 0.46875 -2.152344 0.46875 -2.675781 C 0.46875 -3.195312 0.585938 -3.664062 0.824219 -4.078125 C 1.0625 -4.492188 1.386719 -4.8125 1.804688 -5.042969 C 2.222656 -5.273438 2.695312 -5.390625 3.222656 -5.390625 C 3.683594 -5.390625 4.097656 -5.300781 4.460938 -5.121094 C 4.820312 -4.941406 5.109375 -4.675781 5.320312 -4.332031 L 4.78125 -3.964844 C 4.601562 -4.230469 4.378906 -4.429688 4.109375 -4.5625 C 3.835938 -4.691406 3.542969 -4.757812 3.222656 -4.757812 C 2.835938 -4.757812 2.488281 -4.671875 2.179688 -4.5 C 1.871094 -4.328125 1.632812 -4.082031 1.460938 -3.761719 C 1.285156 -3.445312 1.199219 -3.082031 1.199219 -2.675781 C 1.199219 -2.261719 1.285156 -1.898438 1.460938 -1.582031 C 1.632812 -1.265625 1.871094 -1.023438 2.179688 -0.847656 C 2.488281 -0.675781 2.835938 -0.589844 3.222656 -0.589844 C 3.542969 -0.589844 3.835938 -0.652344 4.109375 -0.78125 C 4.378906 -0.910156 4.601562 -1.109375 4.78125 -1.371094 L 5.320312 -1.007812 C 5.109375 -0.660156 4.820312 -0.398438 4.453125 -0.21875 C 4.089844 -0.0390625 3.679688 0.0507812 3.222656 0.0507812 Z M 3.222656 0.0507812 "/></g></g></g><g fill="#8dc63f" fill-opacity="1"><g transform="translate(4836.159715, 573.274606)"><g><path d="M 1.699219 -4.300781 C 1.867188 -4.660156 2.121094 -4.933594 2.457031 -5.113281 C 2.792969 -5.296875 3.207031 -5.390625 3.703125 -5.390625 L 3.703125 -4.6875 L 3.527344 -4.699219 C 2.964844 -4.699219 2.523438 -4.523438 2.207031 -4.179688 C 1.886719 -3.832031 1.730469 -3.347656 1.730469 -2.726562 L 1.730469 0 L 1.007812 0 L 1.007812 -5.347656 L 1.699219 -5.347656 Z M 1.699219 -4.300781 "/></g></g></g><g fill="#8dc63f" fill-opacity="1"><g transform="translate(4840.10479, 573.274606)"><g><path d="M 3.191406 0.0507812 C 2.679688 0.0507812 2.214844 -0.0664062 1.800781 -0.300781 C 1.386719 -0.535156 1.0625 -0.859375 0.824219 -1.269531 C 0.585938 -1.683594 0.46875 -2.152344 0.46875 -2.675781 C 0.46875 -3.195312 0.585938 -3.664062 0.824219 -4.078125 C 1.0625 -4.492188 1.386719 -4.8125 1.800781 -5.042969 C 2.214844 -5.273438 2.679688 -5.390625 3.191406 -5.390625 C 3.707031 -5.390625 4.171875 -5.273438 4.585938 -5.042969 C 5 -4.8125 5.324219 -4.492188 5.558594 -4.078125 C 5.792969 -3.664062 5.90625 -3.195312 5.90625 -2.675781 C 5.90625 -2.152344 5.792969 -1.683594 5.558594 -1.269531 C 5.324219 -0.859375 5 -0.535156 4.585938 -0.300781 C 4.171875 -0.0664062 3.707031 0.0507812 3.191406 0.0507812 Z M 3.191406 -0.589844 C 3.574219 -0.589844 3.914062 -0.675781 4.214844 -0.847656 C 4.515625 -1.023438 4.753906 -1.269531 4.921875 -1.585938 C 5.089844 -1.90625 5.175781 -2.269531 5.175781 -2.675781 C 5.175781 -3.082031 5.089844 -3.445312 4.921875 -3.761719 C 4.753906 -4.082031 4.515625 -4.328125 4.214844 -4.5 C 3.914062 -4.671875 3.574219 -4.757812 3.191406 -4.757812 C 2.8125 -4.757812 2.472656 -4.671875 2.171875 -4.5 C 1.871094 -4.328125 1.632812 -4.082031 1.460938 -3.761719 C 1.285156 -3.445312 1.199219 -3.082031 1.199219 -2.675781 C 1.199219 -2.269531 1.285156 -1.90625 1.460938 -1.585938 C 1.632812 -1.269531 1.871094 -1.023438 2.171875 -0.847656 C 2.472656 -0.675781 2.8125 -0.589844 3.191406 -0.589844 Z M 3.191406 -0.589844 "/></g></g></g><g fill="#8dc63f" fill-opacity="1"><g transform="translate(4846.479974, 573.274606)"><g><path d="M 3.761719 -5.390625 C 4.265625 -5.390625 4.71875 -5.277344 5.125 -5.050781 C 5.53125 -4.820312 5.851562 -4.5 6.082031 -4.089844 C 6.3125 -3.675781 6.425781 -3.203125 6.425781 -2.675781 C 6.425781 -2.140625 6.3125 -1.664062 6.082031 -1.25 C 5.851562 -0.835938 5.535156 -0.515625 5.128906 -0.289062 C 4.726562 -0.0625 4.269531 0.0507812 3.761719 0.0507812 C 3.328125 0.0507812 2.9375 -0.0390625 2.589844 -0.21875 C 2.238281 -0.398438 1.953125 -0.660156 1.730469 -1.007812 L 1.730469 1.972656 L 1.007812 1.972656 L 1.007812 -5.347656 L 1.699219 -5.347656 L 1.699219 -4.292969 C 1.914062 -4.644531 2.203125 -4.914062 2.558594 -5.105469 C 2.914062 -5.292969 3.316406 -5.390625 3.761719 -5.390625 Z M 3.710938 -0.589844 C 4.085938 -0.589844 4.421875 -0.675781 4.730469 -0.847656 C 5.035156 -1.023438 5.273438 -1.269531 5.445312 -1.585938 C 5.617188 -1.90625 5.703125 -2.269531 5.703125 -2.675781 C 5.703125 -3.082031 5.617188 -3.441406 5.445312 -3.757812 C 5.273438 -4.074219 5.035156 -4.320312 4.730469 -4.496094 C 4.421875 -4.671875 4.085938 -4.757812 3.710938 -4.757812 C 3.332031 -4.757812 2.992188 -4.671875 2.691406 -4.496094 C 2.386719 -4.320312 2.152344 -4.074219 1.976562 -3.757812 C 1.804688 -3.441406 1.71875 -3.082031 1.71875 -2.675781 C 1.71875 -2.269531 1.804688 -1.90625 1.976562 -1.585938 C 2.152344 -1.269531 2.386719 -1.023438 2.691406 -0.847656 C 2.992188 -0.675781 3.332031 -0.589844 3.710938 -0.589844 Z M 3.710938 -0.589844 "/></g></g></g><g fill="#8dc63f" fill-opacity="1"><g transform="translate(4853.373712, 573.274606)"><g/></g></g><g fill="#8dc63f" fill-opacity="1"><g transform="translate(4856.037665, 573.274606)"><g><path d="M 7.675781 -5.390625 C 8.347656 -5.390625 8.875 -5.195312 9.257812 -4.808594 C 9.640625 -4.421875 9.832031 -3.855469 9.832031 -3.101562 L 9.832031 0 L 9.113281 0 L 9.113281 -3.03125 C 9.113281 -3.585938 8.976562 -4.011719 8.710938 -4.300781 C 8.441406 -4.59375 8.0625 -4.738281 7.574219 -4.738281 C 7.019531 -4.738281 6.582031 -4.566406 6.265625 -4.226562 C 5.945312 -3.882812 5.785156 -3.410156 5.785156 -2.804688 L 5.785156 0 L 5.0625 0 L 5.0625 -3.03125 C 5.0625 -3.585938 4.929688 -4.011719 4.664062 -4.300781 C 4.394531 -4.59375 4.011719 -4.738281 3.519531 -4.738281 C 2.96875 -4.738281 2.535156 -4.566406 2.210938 -4.226562 C 1.890625 -3.882812 1.730469 -3.410156 1.730469 -2.804688 L 1.730469 0 L 1.007812 0 L 1.007812 -5.347656 L 1.699219 -5.347656 L 1.699219 -4.371094 C 1.886719 -4.699219 2.152344 -4.949219 2.492188 -5.125 C 2.832031 -5.300781 3.21875 -5.390625 3.660156 -5.390625 C 4.109375 -5.390625 4.496094 -5.292969 4.824219 -5.105469 C 5.152344 -4.914062 5.398438 -4.632812 5.5625 -4.261719 C 5.757812 -4.613281 6.042969 -4.890625 6.410156 -5.089844 C 6.78125 -5.289062 7.203125 -5.390625 7.675781 -5.390625 Z M 7.675781 -5.390625 "/></g></g></g><g fill="#8dc63f" fill-opacity="1"><g transform="translate(4866.845991, 573.274606)"><g><path d="M 5.664062 -2.449219 L 1.191406 -2.449219 C 1.230469 -1.894531 1.445312 -1.445312 1.832031 -1.101562 C 2.21875 -0.761719 2.703125 -0.589844 3.292969 -0.589844 C 3.625 -0.589844 3.933594 -0.648438 4.210938 -0.769531 C 4.488281 -0.886719 4.730469 -1.0625 4.933594 -1.292969 L 5.339844 -0.824219 C 5.101562 -0.539062 4.804688 -0.320312 4.449219 -0.171875 C 4.09375 -0.0234375 3.703125 0.0507812 3.273438 0.0507812 C 2.726562 0.0507812 2.238281 -0.0664062 1.816406 -0.300781 C 1.390625 -0.535156 1.0625 -0.859375 0.824219 -1.269531 C 0.585938 -1.683594 0.46875 -2.152344 0.46875 -2.675781 C 0.46875 -3.195312 0.582031 -3.664062 0.808594 -4.078125 C 1.035156 -4.492188 1.347656 -4.8125 1.742188 -5.042969 C 2.140625 -5.273438 2.585938 -5.390625 3.082031 -5.390625 C 3.574219 -5.390625 4.019531 -5.273438 4.414062 -5.042969 C 4.804688 -4.8125 5.113281 -4.492188 5.339844 -4.082031 C 5.5625 -3.671875 5.675781 -3.203125 5.675781 -2.675781 Z M 3.082031 -4.769531 C 2.566406 -4.769531 2.132812 -4.605469 1.785156 -4.277344 C 1.433594 -3.945312 1.238281 -3.519531 1.191406 -2.988281 L 4.984375 -2.988281 C 4.933594 -3.519531 4.738281 -3.945312 4.386719 -4.277344 C 4.039062 -4.605469 3.601562 -4.769531 3.082031 -4.769531 Z M 3.082031 -4.769531 "/></g></g></g><g fill="#8dc63f" fill-opacity="1"><g transform="translate(4872.987313, 573.274606)"><g/></g></g><g fill="#8dc63f" fill-opacity="1"><g transform="translate(4875.651267, 573.274606)"><g><path d="M 3.191406 0.0507812 C 2.679688 0.0507812 2.214844 -0.0664062 1.800781 -0.300781 C 1.386719 -0.535156 1.0625 -0.859375 0.824219 -1.269531 C 0.585938 -1.683594 0.46875 -2.152344 0.46875 -2.675781 C 0.46875 -3.195312 0.585938 -3.664062 0.824219 -4.078125 C 1.0625 -4.492188 1.386719 -4.8125 1.800781 -5.042969 C 2.214844 -5.273438 2.679688 -5.390625 3.191406 -5.390625 C 3.707031 -5.390625 4.171875 -5.273438 4.585938 -5.042969 C 5 -4.8125 5.324219 -4.492188 5.558594 -4.078125 C 5.792969 -3.664062 5.90625 -3.195312 5.90625 -2.675781 C 5.90625 -2.152344 5.792969 -1.683594 5.558594 -1.269531 C 5.324219 -0.859375 5 -0.535156 4.585938 -0.300781 C 4.171875 -0.0664062 3.707031 0.0507812 3.191406 0.0507812 Z M 3.191406 -0.589844 C 3.574219 -0.589844 3.914062 -0.675781 4.214844 -0.847656 C 4.515625 -1.023438 4.753906 -1.269531 4.921875 -1.585938 C 5.089844 -1.90625 5.175781 -2.269531 5.175781 -2.675781 C 5.175781 -3.082031 5.089844 -3.445312 4.921875 -3.761719 C 4.753906 -4.082031 4.515625 -4.328125 4.214844 -4.5 C 3.914062 -4.671875 3.574219 -4.757812 3.191406 -4.757812 C 2.8125 -4.757812 2.472656 -4.671875 2.171875 -4.5 C 1.871094 -4.328125 1.632812 -4.082031 1.460938 -3.761719 C 1.285156 -3.445312 1.199219 -3.082031 1.199219 -2.675781 C 1.199219 -2.269531 1.285156 -1.90625 1.460938 -1.585938 C 1.632812 -1.269531 1.871094 -1.023438 2.171875 -0.847656 C 2.472656 -0.675781 2.8125 -0.589844 3.191406 -0.589844 Z M 3.191406 -0.589844 "/></g></g></g><g fill="#8dc63f" fill-opacity="1"><g transform="translate(4882.026453, 573.274606)"><g><path d="M 5.828125 -5.347656 L 5.828125 0 L 5.136719 0 L 5.136719 -0.976562 C 4.945312 -0.652344 4.683594 -0.398438 4.351562 -0.21875 C 4.019531 -0.0390625 3.640625 0.0507812 3.214844 0.0507812 C 2.515625 0.0507812 1.964844 -0.144531 1.5625 -0.535156 C 1.15625 -0.921875 0.957031 -1.496094 0.957031 -2.246094 L 0.957031 -5.347656 L 1.679688 -5.347656 L 1.679688 -2.320312 C 1.679688 -1.753906 1.816406 -1.328125 2.09375 -1.039062 C 2.371094 -0.746094 2.769531 -0.601562 3.285156 -0.601562 C 3.847656 -0.601562 4.292969 -0.769531 4.617188 -1.113281 C 4.941406 -1.457031 5.105469 -1.933594 5.105469 -2.542969 L 5.105469 -5.347656 Z M 5.828125 -5.347656 "/></g></g></g><g fill="#8dc63f" fill-opacity="1"><g transform="translate(4888.86935, 573.274606)"><g><path d="M 3.824219 -0.324219 C 3.6875 -0.203125 3.519531 -0.109375 3.320312 -0.046875 C 3.121094 0.0195312 2.910156 0.0507812 2.695312 0.0507812 C 2.191406 0.0507812 1.808594 -0.0859375 1.535156 -0.355469 C 1.265625 -0.628906 1.128906 -1.011719 1.128906 -1.503906 L 1.128906 -4.738281 L 0.171875 -4.738281 L 0.171875 -5.347656 L 1.128906 -5.347656 L 1.128906 -6.519531 L 1.851562 -6.519531 L 1.851562 -5.347656 L 3.476562 -5.347656 L 3.476562 -4.738281 L 1.851562 -4.738281 L 1.851562 -1.546875 C 1.851562 -1.226562 1.929688 -0.984375 2.089844 -0.820312 C 2.25 -0.652344 2.476562 -0.570312 2.777344 -0.570312 C 2.925781 -0.570312 3.070312 -0.59375 3.207031 -0.640625 C 3.347656 -0.6875 3.46875 -0.757812 3.570312 -0.84375 Z M 3.824219 -0.324219 "/></g></g></g><g fill="#8dc63f" fill-opacity="1"><g transform="translate(4892.997456, 573.274606)"><g/></g></g><g fill="#8dc63f" fill-opacity="1"><g transform="translate(4895.661411, 573.274606)"><g><path d="M 3.730469 -5.390625 C 4.402344 -5.390625 4.9375 -5.195312 5.332031 -4.804688 C 5.730469 -4.414062 5.929688 -3.847656 5.929688 -3.101562 L 5.929688 0 L 5.207031 0 L 5.207031 -3.03125 C 5.207031 -3.585938 5.066406 -4.011719 4.789062 -4.300781 C 4.511719 -4.59375 4.113281 -4.738281 3.601562 -4.738281 C 3.023438 -4.738281 2.566406 -4.566406 2.230469 -4.226562 C 1.898438 -3.882812 1.730469 -3.410156 1.730469 -2.804688 L 1.730469 0 L 1.007812 0 L 1.007812 -7.546875 L 1.730469 -7.546875 L 1.730469 -4.414062 C 1.925781 -4.726562 2.195312 -4.964844 2.542969 -5.136719 C 2.886719 -5.304688 3.285156 -5.390625 3.730469 -5.390625 Z M 3.730469 -5.390625 "/></g></g></g><g fill="#8dc63f" fill-opacity="1"><g transform="translate(4902.565325, 573.274606)"><g><path d="M 5.664062 -2.449219 L 1.191406 -2.449219 C 1.230469 -1.894531 1.445312 -1.445312 1.832031 -1.101562 C 2.21875 -0.761719 2.703125 -0.589844 3.292969 -0.589844 C 3.625 -0.589844 3.933594 -0.648438 4.210938 -0.769531 C 4.488281 -0.886719 4.730469 -1.0625 4.933594 -1.292969 L 5.339844 -0.824219 C 5.101562 -0.539062 4.804688 -0.320312 4.449219 -0.171875 C 4.09375 -0.0234375 3.703125 0.0507812 3.273438 0.0507812 C 2.726562 0.0507812 2.238281 -0.0664062 1.816406 -0.300781 C 1.390625 -0.535156 1.0625 -0.859375 0.824219 -1.269531 C 0.585938 -1.683594 0.46875 -2.152344 0.46875 -2.675781 C 0.46875 -3.195312 0.582031 -3.664062 0.808594 -4.078125 C 1.035156 -4.492188 1.347656 -4.8125 1.742188 -5.042969 C 2.140625 -5.273438 2.585938 -5.390625 3.082031 -5.390625 C 3.574219 -5.390625 4.019531 -5.273438 4.414062 -5.042969 C 4.804688 -4.8125 5.113281 -4.492188 5.339844 -4.082031 C 5.5625 -3.671875 5.675781 -3.203125 5.675781 -2.675781 Z M 3.082031 -4.769531 C 2.566406 -4.769531 2.132812 -4.605469 1.785156 -4.277344 C 1.433594 -3.945312 1.238281 -3.519531 1.191406 -2.988281 L 4.984375 -2.988281 C 4.933594 -3.519531 4.738281 -3.945312 4.386719 -4.277344 C 4.039062 -4.605469 3.601562 -4.769531 3.082031 -4.769531 Z M 3.082031 -4.769531 "/></g></g></g><g fill="#8dc63f" fill-opacity="1"><g transform="translate(4908.706647, 573.274606)"><g><path d="M 1.699219 -4.300781 C 1.867188 -4.660156 2.121094 -4.933594 2.457031 -5.113281 C 2.792969 -5.296875 3.207031 -5.390625 3.703125 -5.390625 L 3.703125 -4.6875 L 3.527344 -4.699219 C 2.964844 -4.699219 2.523438 -4.523438 2.207031 -4.179688 C 1.886719 -3.832031 1.730469 -3.347656 1.730469 -2.726562 L 1.730469 0 L 1.007812 0 L 1.007812 -5.347656 L 1.699219 -5.347656 Z M 1.699219 -4.300781 "/></g></g></g><g fill="#8dc63f" fill-opacity="1"><g transform="translate(4912.651718, 573.274606)"><g><path d="M 5.664062 -2.449219 L 1.191406 -2.449219 C 1.230469 -1.894531 1.445312 -1.445312 1.832031 -1.101562 C 2.21875 -0.761719 2.703125 -0.589844 3.292969 -0.589844 C 3.625 -0.589844 3.933594 -0.648438 4.210938 -0.769531 C 4.488281 -0.886719 4.730469 -1.0625 4.933594 -1.292969 L 5.339844 -0.824219 C 5.101562 -0.539062 4.804688 -0.320312 4.449219 -0.171875 C 4.09375 -0.0234375 3.703125 0.0507812 3.273438 0.0507812 C 2.726562 0.0507812 2.238281 -0.0664062 1.816406 -0.300781 C 1.390625 -0.535156 1.0625 -0.859375 0.824219 -1.269531 C 0.585938 -1.683594 0.46875 -2.152344 0.46875 -2.675781 C 0.46875 -3.195312 0.582031 -3.664062 0.808594 -4.078125 C 1.035156 -4.492188 1.347656 -4.8125 1.742188 -5.042969 C 2.140625 -5.273438 2.585938 -5.390625 3.082031 -5.390625 C 3.574219 -5.390625 4.019531 -5.273438 4.414062 -5.042969 C 4.804688 -4.8125 5.113281 -4.492188 5.339844 -4.082031 C 5.5625 -3.671875 5.675781 -3.203125 5.675781 -2.675781 Z M 3.082031 -4.769531 C 2.566406 -4.769531 2.132812 -4.605469 1.785156 -4.277344 C 1.433594 -3.945312 1.238281 -3.519531 1.191406 -2.988281 L 4.984375 -2.988281 C 4.933594 -3.519531 4.738281 -3.945312 4.386719 -4.277344 C 4.039062 -4.605469 3.601562 -4.769531 3.082031 -4.769531 Z M 3.082031 -4.769531 "/></g></g></g><g fill="#8dc63f" fill-opacity="1"><g transform="translate(4918.732031, 573.274606)"><g><path d="M 0 0 L 5.085938 0 L 5.085938 0.488281 L 0 0.488281 Z M 0 0 "/></g></g></g></svg>