<svg xmlns="http://www.w3.org/2000/svg" xmlns:xlink="http://www.w3.org/1999/xlink" width="6912" zoomAndPan="magnify" viewBox="0 0 5184 352.49999" height="470" preserveAspectRatio="xMidYMid meet" version="1.0"><defs><clipPath id="6c19af991a"><path d="M 3.671875 0 L 5180.328125 0 L 5180.328125 352 L 3.671875 352 Z M 3.671875 0 " clip-rule="nonzero"/></clipPath><clipPath id="714d58f102"><path d="M 550 0 L 5180.328125 0 L 5180.328125 169 L 550 169 Z M 550 0 " clip-rule="nonzero"/></clipPath></defs><g clip-path="url(#6c19af991a)"><path fill="#ffffff" d="M 3.671875 0 L 5180.328125 0 L 5180.328125 352 L 3.671875 352 Z M 3.671875 0 " fill-opacity="1" fill-rule="nonzero"/><path fill="#1c1c1c" d="M 3.671875 0 L 5180.328125 0 L 5180.328125 352 L 3.671875 352 Z M 3.671875 0 " fill-opacity="1" fill-rule="nonzero"/><path fill="#6d6d6d" d="M -13.660156 -0.101562 L 471.570312 -0.101562 L 608.304688 218.953125 L 5197.652344 218.953125 L 5197.652344 351.960938 L -13.660156 351.960938 Z M -13.660156 -0.101562 " fill-opacity="1" fill-rule="evenodd"/></g><g clip-path="url(#714d58f102)"><path fill="#8dc63f" d="M 550.25 -0.101562 L 5197.652344 -0.101562 L 5197.652344 168.46875 L 653.238281 168.46875 Z M 550.25 -0.101562 " fill-opacity="1" fill-rule="evenodd"/></g></svg>