<svg xmlns="http://www.w3.org/2000/svg" xmlns:xlink="http://www.w3.org/1999/xlink" width="6912" zoomAndPan="magnify" viewBox="0 0 5184 352.49999" height="470" preserveAspectRatio="xMidYMid meet" version="1.0"><defs><clipPath id="798b462eac"><path d="M 3.671875 0 L 5180.328125 0 L 5180.328125 352 L 3.671875 352 Z M 3.671875 0 " clip-rule="nonzero"/></clipPath><clipPath id="21257cbd23"><path d="M 532 0 L 5180.328125 0 L 5180.328125 169 L 532 169 Z M 532 0 " clip-rule="nonzero"/></clipPath></defs><g clip-path="url(#798b462eac)"><path fill="none" d="M 3.671875 0 L 5180.328125 0 L 5180.328125 352 L 3.671875 352 Z M 3.671875 0 " fill-opacity="1" fill-rule="nonzero"/><path fill="#1c1c1c" d="M 3.671875 0 L 5180.328125 0 L 5180.328125 352 L 3.671875 352 Z M 3.671875 0 " fill-opacity="1" fill-rule="nonzero"/><path fill="#6d6d6d" d="M -36.785156 -1.667969 L 452.75 -1.667969 L 590.695312 219.328125 L 5220.78125 219.328125 L 5220.78125 353.515625 L -36.785156 353.515625 Z M -36.785156 -1.667969 " fill-opacity="1" fill-rule="evenodd"/></g><g clip-path="url(#21257cbd23)"><path fill="#8dc63f" d="M 532.128906 -1.667969 L 5220.78125 -1.667969 L 5220.78125 168.398438 L 636.03125 168.398438 Z M 532.128906 -1.667969 " fill-opacity="1" fill-rule="evenodd"/></g></svg>