<?xml version="1.0" encoding="utf-8"?>
<svg xmlns="http://www.w3.org/2000/svg" width="6912" zoomAndPan="magnify" viewBox="0 0 5184 352.49999" height="470" preserveAspectRatio="none" version="1.0" xmlns:bx="https://boxy-svg.com"><defs><clipPath id="798b462eac"><path d="M 3.671875 0 L 5180.328125 0 L 5180.328125 352 L 3.671875 352 Z M 3.671875 0 " clip-rule="nonzero"/></clipPath><clipPath id="21257cbd23"><path d="M 532 0 L 5180.328125 0 L 5180.328125 169 L 532 169 Z M 532 0 " clip-rule="nonzero"/></clipPath><bx:export><bx:file format="svg" href="#object-0"/><bx:file format="svg" path="Untitled 2.svg"/></bx:export></defs><g clip-path="url(#798b462eac)" style="" transform="matrix(1.003357, 0, 0, 1.057593, -11.59668, -17.376532)" id="object-0"><path fill="none" d="M 3.671875 0 L 5180.328125 0 L 5180.328125 352 L 3.671875 352 Z M 3.671875 0 " fill-opacity="1" fill-rule="nonzero"/><path fill="#1c1c1c" d="M 3.671875 0 L 5180.328125 0 L 5180.328125 352 L 3.671875 352 Z M 3.671875 0 " fill-opacity="1" fill-rule="nonzero"/><path fill="#6d6d6d" d="M -36.785156 -1.667969 L 452.75 -1.667969 L 590.695312 219.328125 L 5220.78125 219.328125 L 5220.78125 353.515625 L -36.785156 353.515625 Z M -36.785156 -1.667969 " fill-opacity="1" fill-rule="evenodd"/></g><g clip-path="url(#21257cbd23)" style="" transform="matrix(1.001246, 0, 0, 1.034396, -0.663092, 0)"><path fill="#8dc63f" d="M 532.128906 -1.667969 L 5220.78125 -1.667969 L 5220.78125 168.398438 L 636.03125 168.398438 Z M 532.128906 -1.667969 " fill-opacity="1" fill-rule="evenodd"/></g></svg>