<svg version="1.2" preserveAspectRatio="xMidYMid meet" viewBox="0 0 450 107.15999696" zoomAndPan="magnify" xmlns:xlink="http://www.w3.org/1999/xlink" xmlns="http://www.w3.org/2000/svg" style="max-height: 500px" width="450" height="107.15999696"><defs><clipPath id="b6d7c746c4"><path d="M 0.320312 29 L 449.679688 29 L 449.679688 110 L 0.320312 110 Z M 0.320312 29"/></clipPath><clipPath id="bbd46c8cc0"><path d="M 0.320312 0 L 280 0 L 280 41 L 0.320312 41 Z M 0.320312 0"/></clipPath><clipPath id="1bd4a59bbb"><path d="M 0.320312 22 L 449.679688 22 L 449.679688 62 L 0.320312 62 Z M 0.320312 22"/></clipPath></defs><g id="fcc599f0ba"><g clip-path="url(#b6d7c746c4)" clip-rule="nonzero"><path d="M 449.652344 29.652344 C 449.652344 29.652344 359.699219 54.726562 225 54.726562 C 90.300781 54.726562 0.347656 29.652344 0.347656 29.652344 L 0.347656 109.71875 L 449.652344 109.71875 Z M 449.652344 29.652344" style="stroke:none;fill-rule:nonzero;fill:#1c1c1c;fill-opacity:1;"/></g><g clip-path="url(#bbd46c8cc0)" clip-rule="nonzero"><path d="M 0.347656 11.574219 L 0.347656 -0.0078125 C 14.671875 4.078125 29.082031 7.867188 43.570312 11.359375 C 47.652344 12.347656 51.738281 13.3125 55.828125 14.25 C 92.582031 22.570312 129.664062 28.988281 167.074219 33.507812 C 185.792969 35.703125 204.574219 37.410156 223.410156 38.523438 C 242.246094 39.636719 261.105469 40.25 279.984375 39.65625 C 261.140625 41.003906 242.21875 41.09375 223.320312 40.769531 C 204.421875 40.445312 185.507812 39.421875 166.636719 37.984375 C 128.835938 34.929688 91.292969 29.949219 54.003906 23.050781 C 50.527344 22.394531 47.039062 21.703125 43.570312 21.027344 C 29.105469 18.167969 14.695312 15.019531 0.347656 11.574219 Z M 0.347656 11.574219" style="stroke:none;fill-rule:nonzero;fill:#8dc63f;fill-opacity:1;"/></g><g clip-path="url(#1bd4a59bbb)" clip-rule="nonzero"><path d="M 0.347656 36.628906 C 13.828125 40.117188 101.269531 61.464844 225 61.464844 C 348.730469 61.464844 436.171875 40.117188 449.652344 36.628906 L 449.652344 22.660156 L 447.851562 23.160156 C 446.953125 23.410156 357.09375 47.984375 225 47.984375 C 92.90625 47.984375 3.046875 23.410156 2.148438 23.160156 L 0.347656 22.660156 Z M 0.347656 36.628906" style="stroke:none;fill-rule:nonzero;fill:#8dc63f;fill-opacity:1;"/></g></g></svg>