<svg version="1.2" preserveAspectRatio="xMidYMid meet" viewBox="0 0 447.884012539185 74.72999788" zoomAndPan="magnify" xmlns:xlink="http://www.w3.org/1999/xlink" xmlns="http://www.w3.org/2000/svg" style="max-height: 500px" width="447.884012539185" height="74.72999788"><defs><clipPath id="4a08297299"><path d="M 40 0 L 449.679688 0 L 449.679688 61 L 40 61 Z M 40 0"/></clipPath><clipPath id="466178838a"><path d="M 0.320312 0 L 449.679688 0 L 449.679688 75 L 0.320312 75 Z M 0.320312 0"/></clipPath><clipPath id="26eb786344"><path d="M 0.320312 0 L 449.679688 0 L 449.679688 69 L 0.320312 69 Z M 0.320312 0"/></clipPath></defs><g id="e819862faf"><g clip-path="url(#4a08297299)" clip-rule="nonzero"><path d="M 449.191406 0.148438 L 449.191406 60.363281 L 40.921875 60.363281 L 40.921875 34.402344 L 41.410156 34.511719 C 106.0625 43.824219 188.816406 48.992188 282.515625 37.472656 C 314.03125 33.601562 345.246094 28.027344 376.15625 20.75 C 401.9375 14.675781 426.296875 7.691406 449.191406 0.148438 Z M 449.191406 0.148438" style="stroke:none;fill-rule:nonzero;fill:#1c1c1c;fill-opacity:1;"/></g><g clip-path="url(#466178838a)" clip-rule="nonzero"><path d="M 335.554688 35.339844 C 304.644531 42.617188 273.429688 48.195312 241.914062 52.066406 C 209.253906 56.070312 176.472656 58.253906 143.574219 58.621094 C 129.394531 56.273438 115.007812 53.464844 100.414062 50.199219 C 66.371094 42.527344 33.003906 32.578125 0.320312 20.351562 L 0.320312 74.945312 L 449.679688 74.945312 L 449.679688 0.0507812 C 412.445312 14.421875 374.402344 26.183594 335.554688 35.339844 Z M 335.554688 35.339844" style="stroke:none;fill-rule:nonzero;fill:#369c2a;fill-opacity:1;"/></g><g clip-path="url(#26eb786344)" clip-rule="nonzero"><path d="M 449.191406 49.101562 C 365.007812 67.738281 241.398438 81.953125 100.414062 50.199219 C 66.371094 42.527344 33.003906 32.578125 0.320312 20.351562 L 0.320312 0.0507812 C 37.554688 14.421875 75.597656 26.183594 114.445312 35.339844 C 145.355469 42.617188 176.570312 48.195312 208.085938 52.066406 C 301.785156 63.582031 384.539062 58.414062 449.191406 49.101562 Z M 449.191406 49.101562" style="stroke:none;fill-rule:nonzero;fill:#8dc63f;fill-opacity:1;"/></g></g></svg>