<svg xml:space="preserve" viewBox="332.64 461.80152 423.36 45.36" version="1.1" xmlns:xlink="http://www.w3.org/1999/xlink" xmlns="http://www.w3.org/2000/svg" style="max-height: 500px" width="423.36" height="45.36">
<desc>Created with Fabric.js 5.2.4</desc>
<defs>
</defs>
<g id="ec5a61c9-26c6-45b9-9b3b-46c31e2eabfa" transform="matrix(1 0 0 1 540 540)">
</g>
<g id="9fe936b4-b6cd-4648-b25a-f177496ed37d" transform="matrix(1 0 0 1 540 540)">
<rect height="1080" width="1080" ry="0" rx="0" y="-540" x="-540" style="stroke: none; stroke-width: 1; stroke-dasharray: none; stroke-linecap: butt; stroke-dashoffset: 0; stroke-linejoin: miter; stroke-miterlimit: 4; fill: rgb(255,255,255); fill-rule: nonzero; opacity: 1; visibility: hidden;"/>
</g>
<g clip-path="url(#CLIPPATH_7)" transform="matrix(1 0 0 1 551.69 492.42)">
<clipPath id="CLIPPATH_7">
	<path stroke-linecap="round" d="M 0.320312 0 L 449.679688 0 L 449.679688 147.539062 L 0.320312 147.539062 Z M 0.320312 0" transform="matrix(1 0 0 1 0 0.19) translate(-225, -73.77)"/>
</clipPath>
<path stroke-linecap="round" d="M 449.679688 0.0898438 L 449.679688 147.070312 L 434.34375 147.070312 L 355.480469 10.480469 L 0.324219 10.480469 L 0.324219 0.0898438 Z M 449.679688 0.0898438" transform="translate(-225, -73.58)" style="stroke: none; stroke-width: 1; stroke-dasharray: none; stroke-linecap: butt; stroke-dashoffset: 0; stroke-linejoin: miter; stroke-miterlimit: 4; fill: rgb(141,198,63); fill-rule: evenodd; opacity: 1;"/>
</g>
<g transform="matrix(1 0 0 1 540.71 438.54)">
<path stroke-linecap="round" d="M 70.226562 24.894531 L 64.230469 14.503906 L 357.804688 14.503906 L 363.804688 24.894531 Z M 70.226562 24.894531" transform="translate(-214.02, -19.7)" style="stroke: none; stroke-width: 1; stroke-dasharray: none; stroke-linecap: butt; stroke-dashoffset: 0; stroke-linejoin: miter; stroke-miterlimit: 4; fill: rgb(54,156,42); fill-rule: evenodd; opacity: 1;"/>
</g>
<g clip-path="url(#CLIPPATH_8)" transform="matrix(1 0 0 1 492.17 444.67)">
<clipPath id="CLIPPATH_8">
	<path stroke-linecap="round" d="M 0.320312 0 L 347 0 L 347 42 L 0.320312 42 Z M 0.320312 0" transform="matrix(1 0 0 1 12.12 3.7) translate(-173.66, -21)"/>
</clipPath>
<path stroke-linecap="round" d="M 346.132812 -2.125 C 345.8125 -2.054688 345.492188 -1.988281 345.171875 -1.917969 C 337.945312 -0.109375 333.027344 5.082031 333.003906 5.105469 L 290.839844 41.777344 L -23.058594 41.777344 L -23.058594 32.902344 L 273.476562 32.902344 L 315.640625 0.4375 C 315.640625 0.4375 322.730469 -7.019531 332.363281 -7.179688 C 337.144531 -7.25 341.765625 -5.554688 346.113281 -2.125 Z M 346.132812 -2.125" transform="translate(-161.54, -17.3)" style="stroke: none; stroke-width: 1; stroke-dasharray: none; stroke-linecap: butt; stroke-dashoffset: 0; stroke-linejoin: miter; stroke-miterlimit: 4; fill: rgb(54,156,42); fill-rule: nonzero; opacity: 1;"/>
</g>
<g clip-path="url(#CLIPPATH_9)" transform="matrix(1 0 0 1 716.92 454.64)">
<clipPath id="CLIPPATH_9">
	<path stroke-linecap="round" d="M 345 0 L 434.953125 0 L 434.953125 73.707031 L 345 73.707031 Z M 345 0" transform="matrix(1 0 0 1 -0.25 1.04) translate(-389.98, -36.85)"/>
</clipPath>
<path stroke-linecap="round" d="M 434.484375 62.320312 L 434.484375 73.394531 L 397.171875 73.394531 L 348.492188 0.964844 C 347.667969 0.140625 346.796875 -0.636719 345.953125 -1.324219 C 346.273438 -1.390625 346.59375 -1.460938 346.914062 -1.507812 C 347.828125 -1.667969 348.789062 -1.757812 349.773438 -1.78125 C 355.421875 -1.871094 360.867188 0.621094 365.878906 5.632812 L 407.582031 62.160156 L 407.695312 62.320312 L 434.507812 62.320312 Z M 434.484375 62.320312" transform="translate(-390.23, -35.81)" style="stroke: none; stroke-width: 1; stroke-dasharray: none; stroke-linecap: butt; stroke-dashoffset: 0; stroke-linejoin: miter; stroke-miterlimit: 4; fill: rgb(141,198,63); fill-rule: nonzero; opacity: 1;"/>
</g>
<g clip-path="url(#CLIPPATH_10)" transform="matrix(0.99 0 0 1.06 535.27 458.19)">
<clipPath id="CLIPPATH_10">
	<path stroke-linecap="round" d="M 0.320312 0 L 434.953125 0 L 434.953125 65 L 0.320312 65 Z M 0.320312 0" transform="matrix(1 0 0 1 11.94 2.61) translate(-217.64, -32.5)"/>
</clipPath>
<path stroke-linecap="round" d="M 434.464844 59.644531 L 434.464844 64.265625 L 406.667969 64.265625 L 405.980469 63.28125 L 364.390625 6.914062 C 359.792969 2.359375 354.894531 0.0742188 349.792969 0.164062 C 349.109375 0.164062 348.445312 0.234375 347.78125 0.324219 C 347.597656 0.347656 347.414062 0.371094 347.234375 0.414062 C 346.914062 0.460938 346.636719 0.53125 346.339844 0.574219 C 339.796875 2.015625 335.085938 6.796875 334.902344 7.003906 L 334.765625 7.117188 L 291.824219 44.476562 L -23.058594 44.476562 L -23.058594 39.855469 L 290.085938 39.855469 L 331.699219 3.640625 C 332.796875 2.542969 337.464844 -1.78125 344.03125 -3.632812 C 344.234375 -3.703125 344.441406 -3.746094 344.648438 -3.792969 C 344.992188 -3.886719 345.355469 -3.976562 345.722656 -4.046875 C 347.003906 -4.296875 348.355469 -4.457031 349.65625 -4.480469 C 356.085938 -4.570312 362.195312 -1.804688 367.753906 3.753906 L 367.9375 3.984375 L 409 59.621094 L 434.441406 59.621094 Z M 434.464844 59.644531" transform="translate(-205.7, -29.89)" style="stroke: none; stroke-width: 1; stroke-dasharray: none; stroke-linecap: butt; stroke-dashoffset: 0; stroke-linejoin: miter; stroke-miterlimit: 4; fill: rgb(28,28,28); fill-rule: nonzero; opacity: 1;"/>
</g>
</svg>