<svg version="1.2" preserveAspectRatio="xMidYMid meet" viewBox="0 0 450 107.15999696" zoomAndPan="magnify" xmlns:xlink="http://www.w3.org/1999/xlink" xmlns="http://www.w3.org/2000/svg" style="max-height: 500px" width="450" height="107.15999696"><defs><clipPath id="acab066c0b"><path d="M 0.320312 0 L 449.679688 0 L 449.679688 68 L 0.320312 68 Z M 0.320312 0"/></clipPath><clipPath id="7e79c9ddcf"><path d="M 0.320312 29 L 449.679688 29 L 449.679688 76 L 0.320312 76 Z M 0.320312 29"/></clipPath><clipPath id="3cc346c7a2"><path d="M 0.320312 14 L 226 14 L 226 50 L 0.320312 50 Z M 0.320312 14"/></clipPath><clipPath id="7e4365072e"><path d="M 226 49 L 449.679688 49 L 449.679688 105.414062 L 226 105.414062 Z M 226 49"/></clipPath></defs><g id="67f85d89b7"><g clip-path="url(#acab066c0b)" clip-rule="nonzero"><path d="M 0.320312 67.40625 C 0.320312 67.40625 104.898438 33.707031 225 33.707031 C 345.101562 33.707031 449.679688 67.40625 449.679688 67.40625 L 449.679688 0.00390625 L 0.320312 0.00390625 Z M 0.320312 67.40625" style="stroke:none;fill-rule:nonzero;fill:#1c1c1c;fill-opacity:1;"/></g><g clip-path="url(#7e79c9ddcf)" clip-rule="nonzero"><path d="M 449.679688 75.308594 L 449.679688 59.605469 L 448.425781 59.246094 C 447.261719 58.914062 446.097656 58.59375 444.933594 58.273438 L 441.449219 57.324219 L 437.960938 56.40625 C 433.308594 55.195312 428.652344 54.03125 423.992188 52.917969 C 414.667969 50.695312 405.3125 48.632812 395.933594 46.738281 C 386.550781 44.839844 377.144531 43.09375 367.714844 41.496094 C 358.28125 39.910156 348.828125 38.472656 339.355469 37.179688 C 301.457031 32.03125 263.21875 29.402344 225 29.960938 C 186.785156 30.652344 148.757812 34.523438 111.210938 40.878906 C 101.824219 42.476562 92.46875 44.21875 83.140625 46.097656 C 73.816406 47.976562 64.527344 50.019531 55.273438 52.226562 C 46.019531 54.421875 36.808594 56.769531 27.636719 59.265625 C 18.472656 61.792969 9.339844 64.429688 0.320312 67.40625 C 9.433594 64.722656 18.640625 62.390625 27.867188 60.171875 C 37.097656 57.953125 46.375 55.9375 55.675781 54.054688 C 64.976562 52.171875 74.304688 50.441406 83.65625 48.859375 C 93.003906 47.277344 102.378906 45.863281 111.773438 44.582031 C 149.335938 39.492188 187.226562 36.890625 225 37.449219 C 262.773438 38.140625 300.449219 41.976562 337.664062 48.285156 C 346.964844 49.871094 356.242188 51.597656 365.492188 53.460938 C 374.738281 55.339844 383.945312 57.367188 393.121094 59.542969 C 402.296875 61.714844 411.425781 64.042969 420.503906 66.519531 C 425.042969 67.765625 429.5625 69.054688 434.066406 70.382812 L 437.4375 71.390625 L 440.792969 72.421875 C 441.910156 72.769531 443.023438 73.117188 444.128906 73.46875 L 445.777344 74 L 446.59375 74.269531 L 447.378906 74.53125 Z M 449.679688 75.308594" style="stroke:none;fill-rule:nonzero;fill:#8dc63f;fill-opacity:1;"/></g><g clip-path="url(#3cc346c7a2)" clip-rule="nonzero"><path d="M 225.558594 16.683594 C 206.59375 15.363281 187.570312 14.75 168.488281 14.847656 L 161.339844 14.9375 L 157.765625 14.980469 L 154.195312 15.070312 L 147.042969 15.257812 L 139.894531 15.535156 L 136.320312 15.683594 L 132.746094 15.871094 L 129.171875 16.054688 L 127.386719 16.152344 C 126.785156 16.179688 126.191406 16.210938 125.597656 16.253906 L 118.453125 16.714844 L 116.667969 16.828125 L 114.882812 16.964844 L 111.3125 17.230469 L 107.742188 17.5 C 106.550781 17.59375 105.363281 17.707031 104.171875 17.808594 C 101.792969 18.023438 99.414062 18.21875 97.035156 18.445312 L 89.902344 19.152344 C 88.710938 19.265625 87.523438 19.410156 86.335938 19.535156 L 82.773438 19.925781 C 73.273438 20.996094 63.789062 22.238281 54.316406 23.648438 C 44.84375 25.058594 35.390625 26.65625 25.957031 28.449219 C 21.242188 29.355469 16.527344 30.296875 11.820312 31.316406 L 8.289062 32.097656 L 4.753906 32.902344 C 3.574219 33.183594 2.394531 33.453125 1.210938 33.746094 L 0.320312 33.96875 L 0.320312 49.546875 L 1.933594 49.007812 L 2.703125 48.75 L 3.515625 48.484375 L 4.335938 48.222656 L 5.164062 47.960938 C 6.265625 47.609375 7.382812 47.273438 8.496094 46.929688 L 11.851562 45.925781 L 15.230469 44.941406 C 19.734375 43.644531 24.277344 42.425781 28.828125 41.238281 C 37.9375 38.878906 47.105469 36.699219 56.335938 34.699219 C 65.5625 32.699219 74.828125 30.859375 84.125 29.1875 L 87.617188 28.570312 C 88.78125 28.367188 89.941406 28.148438 91.109375 27.960938 L 98.105469 26.800781 C 100.4375 26.421875 102.777344 26.070312 105.113281 25.707031 C 106.28125 25.527344 107.449219 25.335938 108.621094 25.171875 L 112.132812 24.667969 L 115.644531 24.167969 L 117.40625 23.917969 L 119.164062 23.6875 L 126.203125 22.765625 C 126.789062 22.6875 127.378906 22.613281 127.964844 22.546875 L 129.730469 22.339844 L 133.253906 21.921875 L 136.78125 21.503906 L 140.316406 21.132812 L 147.382812 20.382812 L 154.460938 19.730469 L 158 19.40625 L 161.542969 19.128906 L 168.636719 18.574219 C 187.554688 17.269531 206.53125 16.636719 225.558594 16.683594 Z M 225.558594 16.683594" style="stroke:none;fill-rule:nonzero;fill:#369c2a;fill-opacity:1;"/></g><g clip-path="url(#7e4365072e)" clip-rule="nonzero"><path d="M 226.242188 49.261719 C 245.246094 49.828125 264.234375 51.101562 283.210938 53.089844 L 290.3125 53.882812 L 293.867188 54.28125 L 297.414062 54.730469 L 304.511719 55.628906 L 311.59375 56.617188 L 315.140625 57.113281 L 318.675781 57.652344 L 323.984375 58.460938 C 324.574219 58.550781 325.164062 58.640625 325.75 58.738281 L 332.8125 59.90625 L 334.582031 60.203125 L 336.34375 60.515625 L 343.398438 61.765625 C 344.574219 61.972656 345.742188 62.207031 346.917969 62.425781 C 349.265625 62.875 351.613281 63.304688 353.957031 63.773438 L 360.984375 65.183594 C 362.160156 65.414062 363.324219 65.671875 364.496094 65.917969 L 368 66.664062 C 377.351562 68.671875 386.667969 70.847656 395.957031 73.1875 C 405.242188 75.527344 414.492188 78.046875 423.699219 80.738281 C 428.300781 82.109375 432.898438 83.511719 437.480469 84.992188 L 440.925781 86.117188 L 444.359375 87.269531 C 445.507812 87.664062 446.652344 88.054688 447.804688 88.46875 L 448.667969 88.769531 L 449.535156 89.078125 L 449.683594 89.136719 L 449.683594 105.414062 L 445.570312 103.570312 L 444.828125 103.238281 L 444.046875 102.894531 L 443.257812 102.550781 L 442.457031 102.210938 C 441.398438 101.75 440.316406 101.3125 439.242188 100.855469 L 436 99.527344 L 432.742188 98.214844 C 428.382812 96.484375 423.988281 94.820312 419.574219 93.183594 C 410.742188 89.9375 401.835938 86.859375 392.851562 83.953125 C 383.867188 81.046875 374.832031 78.300781 365.742188 75.714844 L 362.328125 74.753906 C 361.191406 74.4375 360.054688 74.105469 358.914062 73.800781 L 352.066406 71.953125 C 349.78125 71.34375 347.492188 70.765625 345.199219 70.171875 C 344.054688 69.871094 342.910156 69.574219 341.765625 69.289062 L 338.320312 68.445312 L 334.875 67.597656 L 333.148438 67.175781 L 331.421875 66.769531 L 324.503906 65.160156 C 323.929688 65.023438 323.351562 64.894531 322.773438 64.769531 L 321.039062 64.386719 L 317.570312 63.625 L 314.101562 62.859375 L 310.625 62.136719 L 303.667969 60.699219 L 296.6875 59.351562 L 293.195312 58.679688 L 289.699219 58.050781 L 282.695312 56.796875 C 264.003906 53.613281 245.1875 51.101562 226.242188 49.261719 Z M 226.242188 49.261719" style="stroke:none;fill-rule:nonzero;fill:#8dc63f;fill-opacity:1;"/></g></g></svg>