<svg xmlns="http://www.w3.org/2000/svg" xmlns:xlink="http://www.w3.org/1999/xlink" width="6912" zoomAndPan="magnify" viewBox="0 0 5184 862.499974" height="1150" preserveAspectRatio="xMidYMid meet" version="1.0"><defs><clipPath id="2532793e22"><path d="M 1.5 0 L 5182.496094 0 L 5182.496094 862 L 1.5 862 Z M 1.5 0 " clip-rule="nonzero"/></clipPath><clipPath id="260d2bdac0"><path d="M 1018 306 L 5182.496094 306 L 5182.496094 677 L 1018 677 Z M 1018 306 " clip-rule="nonzero"/></clipPath><clipPath id="55a8c2c1b7"><path d="M 141 0 L 5182.496094 0 L 5182.496094 845 L 141 845 Z M 141 0 " clip-rule="nonzero"/></clipPath><clipPath id="e26fc1e886"><path d="M 1.5 0 L 1919 0 L 1919 845 L 1.5 845 Z M 1.5 0 " clip-rule="nonzero"/></clipPath><clipPath id="9c8e7bec7b"><path d="M 3261 76 L 5182.496094 76 L 5182.496094 395 L 3261 395 Z M 3261 76 " clip-rule="nonzero"/></clipPath></defs><g clip-path="url(#2532793e22)"><path fill="none" d="M 1.5 0 L 5182.496094 0 L 5182.496094 862 L 1.5 862 Z M 1.5 0 " fill-opacity="1" fill-rule="nonzero"/><path fill="none" d="M 1.5 0 L 5182.496094 0 L 5182.496094 862 L 1.5 862 Z M 1.5 0 " fill-opacity="1" fill-rule="nonzero"/></g><g clip-path="url(#260d2bdac0)"><path fill="none" d="M 2843.070312 306.621094 C 2647.558594 337.082031 2453.0625 370.261719 2259.578125 406.167969 C 1845.605469 483.011719 1428.578125 573.933594 1018.796875 676.589844 C 1395.558594 622.140625 1773.785156 581.25 2153.480469 553.925781 C 2533.175781 526.605469 2913.359375 512.914062 3294.035156 512.859375 C 3608.390625 512.859375 3922.363281 522.230469 4235.953125 540.972656 C 4556.480469 560.09375 4879.195312 589.457031 5199.738281 628.402344 L 5199.738281 464.980469 C 5012.121094 441.582031 4824.515625 420.800781 4636.917969 402.640625 C 4046.472656 345.496094 3442.972656 313.210938 2843.070312 306.621094 Z M 2843.070312 306.621094 " fill-opacity="1" fill-rule="nonzero"/></g><g clip-path="url(#55a8c2c1b7)"><path fill="#369c2a" d="M 141.359375 844.632812 C 406.027344 766.089844 672.191406 692.757812 937.105469 625.460938 C 1369 515.761719 1809.671875 418.980469 2246.871094 337.8125 C 2831.613281 229.242188 3429.394531 145.046875 4023.613281 87.46875 C 4411.609375 49.914062 4805.222656 23.144531 5199.738281 7.167969 L 5199.738281 0.648438 L 2118.1875 0.648438 C 1918.246094 73.988281 1719.792969 150.28125 1522.820312 229.519531 C 1059.40625 416.027344 595.890625 622.4375 141.359375 844.632812 Z M 141.359375 844.632812 " fill-opacity="1" fill-rule="nonzero"/></g><g clip-path="url(#e26fc1e886)"><path fill="#8dc63f" d="M 1496.863281 165.003906 C 1636.546875 108.746094 1777.144531 53.960938 1918.660156 0.648438 L -15.75 0.648438 L -15.75 844.546875 C 480.644531 597.804688 988.808594 369.484375 1496.863281 165.003906 Z M 1496.863281 165.003906 " fill-opacity="1" fill-rule="nonzero"/></g><g clip-path="url(#9c8e7bec7b)"><path fill="#8dc63f" d="M 4030.324219 156.765625 C 3774.3125 181.53125 3518.085938 211.21875 3261.648438 245.828125 C 3724.972656 260.03125 4188.160156 289.289062 4643.628906 333.429688 C 4828.8125 351.347656 5014.183594 371.839844 5199.738281 394.902344 L 5199.738281 76.757812 C 4807.464844 92.699219 4416.09375 119.421875 4030.324219 156.765625 Z M 4030.324219 156.765625 " fill-opacity="1" fill-rule="nonzero"/></g></svg>