<svg version="1.2" preserveAspectRatio="xMidYMid meet" viewBox="0 0 449.294670846395 76.84499782" zoomAndPan="magnify" xmlns:xlink="http://www.w3.org/1999/xlink" xmlns="http://www.w3.org/2000/svg" style="max-height: 500px" width="449.294670846395" height="76.84499782"><defs><clipPath id="cf513aa4b0"><path d="M 0.320312 20 L 449.679688 20 L 449.679688 82 L 0.320312 82 Z M 0.320312 20"/></clipPath><clipPath id="ca4d4481cb"><path d="M 0.320312 5 L 449.679688 5 L 449.679688 67 L 0.320312 67 Z M 0.320312 5"/></clipPath><clipPath id="340f3be9c3"><path d="M 0.320312 0 L 449.679688 0 L 449.679688 50 L 0.320312 50 Z M 0.320312 0"/></clipPath></defs><g id="321990e084"><g clip-path="url(#cf513aa4b0)" clip-rule="nonzero"><path d="M 449.679688 23.851562 C 362.796875 96.878906 49.75 -33.328125 0.320312 81.648438 L 0.320312 20.859375 L 449.679688 20.859375 Z M 449.679688 23.851562" style="stroke:none;fill-rule:evenodd;fill:#8dc63f;fill-opacity:1;"/></g><g clip-path="url(#ca4d4481cb)" clip-rule="nonzero"><path d="M 449.679688 23.851562 C 362.796875 96.878906 81.203125 -39.769531 0.320312 66.222656 L 0.320312 5.433594 L 449.679688 5.433594 Z M 449.679688 23.851562" style="stroke:none;fill-rule:evenodd;fill:#369c2a;fill-opacity:1;"/></g><g clip-path="url(#340f3be9c3)" clip-rule="nonzero"><path d="M 449.679688 23.851562 C 362.796875 96.878906 105.175781 -60.734375 0.320312 49.75 L 0.320312 -2.066406 L 449.679688 -2.066406 Z M 449.679688 23.851562" style="stroke:none;fill-rule:evenodd;fill:#8dc63f;fill-opacity:1;"/></g></g></svg>