<svg xmlns="http://www.w3.org/2000/svg" xmlns:xlink="http://www.w3.org/1999/xlink" width="6912" zoomAndPan="magnify" viewBox="0 0 5184 1079.999946" height="1440" preserveAspectRatio="xMidYMid meet" version="1.0"><defs><g/><clipPath id="d0ffd3a0fc"><path d="M 0 0 L 5183.546875 0 L 5183.546875 1080 L 0 1080 Z M 0 0 " clip-rule="nonzero"/></clipPath><clipPath id="549a53b04e"><path d="M 3630 0 L 5183.546875 0 L 5183.546875 365 L 3630 365 Z M 3630 0 " clip-rule="nonzero"/></clipPath></defs><rect x="-518.4" width="6220.8" fill="none" y="-107.999995" height="1295.999935" fill-opacity="1"/><rect x="-518.4" width="6220.8" fill="none" y="-107.999995" height="1295.999935" fill-opacity="1"/><g clip-path="url(#d0ffd3a0fc)"><path fill="#8dc63f" d="M 5183.546875 -12.105469 C 2312.90625 1077.910156 1547.132812 -173.40625 -0.453125 108.878906 L -0.453125 206 C 1715.507812 -130.257812 2228.722656 1714.625 5183.546875 853.539062 Z M 5183.546875 -12.105469 " fill-opacity="1" fill-rule="evenodd"/></g><g clip-path="url(#549a53b04e)"><path fill="#1c1c1c" d="M 5183.546875 -54.011719 L 5183.546875 -553.375 L 5130.222656 -553.375 C 4832.65625 -274.84375 4472.179688 -1.980469 4029.917969 204.863281 C 3901.535156 264.914062 3768.773438 318.128906 3630.265625 364.488281 C 3633.425781 364.058594 3636.554688 363.652344 3639.714844 363.21875 C 4177.878906 289.644531 4692.390625 132.476562 5149.367188 -41.023438 Z M 5183.546875 -54.011719 " fill-opacity="1" fill-rule="evenodd"/></g><path fill="#369c2a" d="M -0.453125 315.753906 L -0.453125 768.949219 C 353.707031 726.640625 701.683594 720.050781 1067.34375 745.566406 C 1469.589844 773.648438 1852.585938 837.042969 2228.074219 897.46875 C 2305.238281 909.886719 2382.164062 922.171875 2459.113281 934.132812 C 2455.496094 933.269531 2451.878906 932.433594 2448.257812 931.542969 C 2136.625 856.886719 1874.078125 763.898438 1608.800781 667.1875 C 1363.722656 577.84375 1115.082031 485.339844 824.695312 418.003906 C 566.496094 358.171875 298.058594 324.070312 -0.453125 315.753906 Z M -0.453125 315.753906 " fill-opacity="1" fill-rule="evenodd"/><g fill="#8dc63f" fill-opacity="1"><g transform="translate(3442.044196, 558.13032)"><g><path d="M 0 0 L 7.1875 0 L 7.1875 0.6875 L 0 0.6875 Z M 0 0 "/></g></g></g><g fill="#8dc63f" fill-opacity="1"><g transform="translate(3448.824516, 558.13032)"><g><path d="M 4.546875 0.078125 C 3.804688 0.078125 3.140625 -0.0820312 2.546875 -0.40625 C 1.960938 -0.738281 1.5 -1.195312 1.15625 -1.78125 C 0.820312 -2.375 0.65625 -3.039062 0.65625 -3.78125 C 0.65625 -4.507812 0.820312 -5.164062 1.15625 -5.75 C 1.5 -6.34375 1.960938 -6.800781 2.546875 -7.125 C 3.140625 -7.445312 3.804688 -7.609375 4.546875 -7.609375 C 5.203125 -7.609375 5.785156 -7.476562 6.296875 -7.21875 C 6.804688 -6.96875 7.210938 -6.597656 7.515625 -6.109375 L 6.75 -5.59375 C 6.5 -5.96875 6.179688 -6.25 5.796875 -6.4375 C 5.421875 -6.625 5.003906 -6.71875 4.546875 -6.71875 C 4.003906 -6.71875 3.515625 -6.59375 3.078125 -6.34375 C 2.640625 -6.101562 2.296875 -5.757812 2.046875 -5.3125 C 1.804688 -4.863281 1.6875 -4.351562 1.6875 -3.78125 C 1.6875 -3.195312 1.804688 -2.679688 2.046875 -2.234375 C 2.296875 -1.785156 2.640625 -1.4375 3.078125 -1.1875 C 3.515625 -0.945312 4.003906 -0.828125 4.546875 -0.828125 C 5.003906 -0.828125 5.421875 -0.914062 5.796875 -1.09375 C 6.179688 -1.28125 6.5 -1.5625 6.75 -1.9375 L 7.515625 -1.421875 C 7.210938 -0.929688 6.800781 -0.554688 6.28125 -0.296875 C 5.769531 -0.046875 5.191406 0.078125 4.546875 0.078125 Z M 4.546875 0.078125 "/></g></g></g><g fill="#8dc63f" fill-opacity="1"><g transform="translate(3456.912118, 558.13032)"><g><path d="M 2.390625 -6.078125 C 2.628906 -6.578125 2.984375 -6.957031 3.453125 -7.21875 C 3.929688 -7.476562 4.523438 -7.609375 5.234375 -7.609375 L 5.234375 -6.625 L 4.984375 -6.640625 C 4.191406 -6.640625 3.566406 -6.394531 3.109375 -5.90625 C 2.660156 -5.414062 2.4375 -4.726562 2.4375 -3.84375 L 2.4375 0 L 1.421875 0 L 1.421875 -7.546875 L 2.390625 -7.546875 Z M 2.390625 -6.078125 "/></g></g></g><g fill="#8dc63f" fill-opacity="1"><g transform="translate(3462.48579, 558.13032)"><g><path d="M 4.515625 0.078125 C 3.785156 0.078125 3.128906 -0.0859375 2.546875 -0.421875 C 1.960938 -0.753906 1.5 -1.210938 1.15625 -1.796875 C 0.820312 -2.378906 0.65625 -3.039062 0.65625 -3.78125 C 0.65625 -4.507812 0.820312 -5.164062 1.15625 -5.75 C 1.5 -6.34375 1.960938 -6.800781 2.546875 -7.125 C 3.128906 -7.445312 3.785156 -7.609375 4.515625 -7.609375 C 5.234375 -7.609375 5.882812 -7.445312 6.46875 -7.125 C 7.0625 -6.800781 7.519531 -6.34375 7.84375 -5.75 C 8.175781 -5.164062 8.34375 -4.507812 8.34375 -3.78125 C 8.34375 -3.039062 8.175781 -2.378906 7.84375 -1.796875 C 7.519531 -1.210938 7.0625 -0.753906 6.46875 -0.421875 C 5.882812 -0.0859375 5.234375 0.078125 4.515625 0.078125 Z M 4.515625 -0.828125 C 5.046875 -0.828125 5.523438 -0.945312 5.953125 -1.1875 C 6.378906 -1.4375 6.710938 -1.785156 6.953125 -2.234375 C 7.191406 -2.691406 7.3125 -3.207031 7.3125 -3.78125 C 7.3125 -4.351562 7.191406 -4.863281 6.953125 -5.3125 C 6.710938 -5.757812 6.378906 -6.101562 5.953125 -6.34375 C 5.523438 -6.59375 5.046875 -6.71875 4.515625 -6.71875 C 3.972656 -6.71875 3.488281 -6.59375 3.0625 -6.34375 C 2.632812 -6.101562 2.296875 -5.757812 2.046875 -5.3125 C 1.804688 -4.863281 1.6875 -4.351562 1.6875 -3.78125 C 1.6875 -3.207031 1.804688 -2.691406 2.046875 -2.234375 C 2.296875 -1.785156 2.632812 -1.4375 3.0625 -1.1875 C 3.488281 -0.945312 3.972656 -0.828125 4.515625 -0.828125 Z M 4.515625 -0.828125 "/></g></g></g><g fill="#8dc63f" fill-opacity="1"><g transform="translate(3471.492763, 558.13032)"><g><path d="M 5.3125 -7.609375 C 6.019531 -7.609375 6.660156 -7.445312 7.234375 -7.125 C 7.804688 -6.800781 8.253906 -6.347656 8.578125 -5.765625 C 8.910156 -5.179688 9.078125 -4.519531 9.078125 -3.78125 C 9.078125 -3.019531 8.910156 -2.347656 8.578125 -1.765625 C 8.253906 -1.179688 7.804688 -0.726562 7.234375 -0.40625 C 6.671875 -0.0820312 6.03125 0.078125 5.3125 0.078125 C 4.695312 0.078125 4.144531 -0.046875 3.65625 -0.296875 C 3.164062 -0.554688 2.757812 -0.929688 2.4375 -1.421875 L 2.4375 2.78125 L 1.421875 2.78125 L 1.421875 -7.546875 L 2.390625 -7.546875 L 2.390625 -6.0625 C 2.703125 -6.5625 3.109375 -6.941406 3.609375 -7.203125 C 4.109375 -7.472656 4.675781 -7.609375 5.3125 -7.609375 Z M 5.234375 -0.828125 C 5.765625 -0.828125 6.242188 -0.945312 6.671875 -1.1875 C 7.109375 -1.4375 7.445312 -1.785156 7.6875 -2.234375 C 7.9375 -2.691406 8.0625 -3.207031 8.0625 -3.78125 C 8.0625 -4.351562 7.9375 -4.859375 7.6875 -5.296875 C 7.445312 -5.742188 7.109375 -6.09375 6.671875 -6.34375 C 6.242188 -6.59375 5.765625 -6.71875 5.234375 -6.71875 C 4.703125 -6.71875 4.222656 -6.59375 3.796875 -6.34375 C 3.367188 -6.09375 3.03125 -5.742188 2.78125 -5.296875 C 2.539062 -4.859375 2.421875 -4.351562 2.421875 -3.78125 C 2.421875 -3.207031 2.539062 -2.691406 2.78125 -2.234375 C 3.03125 -1.785156 3.367188 -1.4375 3.796875 -1.1875 C 4.222656 -0.945312 4.703125 -0.828125 5.234375 -0.828125 Z M 5.234375 -0.828125 "/></g></g></g><g fill="#8dc63f" fill-opacity="1"><g transform="translate(3481.232359, 558.13032)"><g/></g></g><g fill="#8dc63f" fill-opacity="1"><g transform="translate(3484.996039, 558.13032)"><g><path d="M 10.84375 -7.609375 C 11.789062 -7.609375 12.535156 -7.332031 13.078125 -6.78125 C 13.617188 -6.238281 13.890625 -5.4375 13.890625 -4.375 L 13.890625 0 L 12.859375 0 L 12.859375 -4.28125 C 12.859375 -5.0625 12.671875 -5.65625 12.296875 -6.0625 C 11.921875 -6.476562 11.390625 -6.6875 10.703125 -6.6875 C 9.910156 -6.6875 9.289062 -6.441406 8.84375 -5.953125 C 8.394531 -5.472656 8.171875 -4.8125 8.171875 -3.96875 L 8.171875 0 L 7.15625 0 L 7.15625 -4.28125 C 7.15625 -5.0625 6.960938 -5.65625 6.578125 -6.0625 C 6.203125 -6.476562 5.664062 -6.6875 4.96875 -6.6875 C 4.195312 -6.6875 3.582031 -6.441406 3.125 -5.953125 C 2.664062 -5.472656 2.4375 -4.8125 2.4375 -3.96875 L 2.4375 0 L 1.421875 0 L 1.421875 -7.546875 L 2.390625 -7.546875 L 2.390625 -6.171875 C 2.660156 -6.628906 3.035156 -6.984375 3.515625 -7.234375 C 3.992188 -7.484375 4.546875 -7.609375 5.171875 -7.609375 C 5.796875 -7.609375 6.34375 -7.472656 6.8125 -7.203125 C 7.28125 -6.941406 7.628906 -6.546875 7.859375 -6.015625 C 8.128906 -6.515625 8.523438 -6.90625 9.046875 -7.1875 C 9.578125 -7.46875 10.175781 -7.609375 10.84375 -7.609375 Z M 10.84375 -7.609375 "/></g></g></g><g fill="#8dc63f" fill-opacity="1"><g transform="translate(3500.266235, 558.13032)"><g><path d="M 8 -3.453125 L 1.6875 -3.453125 C 1.738281 -2.671875 2.035156 -2.035156 2.578125 -1.546875 C 3.128906 -1.066406 3.820312 -0.828125 4.65625 -0.828125 C 5.125 -0.828125 5.550781 -0.910156 5.9375 -1.078125 C 6.332031 -1.242188 6.675781 -1.492188 6.96875 -1.828125 L 7.53125 -1.15625 C 7.195312 -0.757812 6.78125 -0.453125 6.28125 -0.234375 C 5.78125 -0.0234375 5.226562 0.078125 4.625 0.078125 C 3.84375 0.078125 3.15625 -0.0859375 2.5625 -0.421875 C 1.96875 -0.753906 1.5 -1.210938 1.15625 -1.796875 C 0.820312 -2.378906 0.65625 -3.039062 0.65625 -3.78125 C 0.65625 -4.507812 0.816406 -5.164062 1.140625 -5.75 C 1.460938 -6.34375 1.898438 -6.800781 2.453125 -7.125 C 3.015625 -7.445312 3.644531 -7.609375 4.34375 -7.609375 C 5.050781 -7.609375 5.679688 -7.445312 6.234375 -7.125 C 6.785156 -6.800781 7.21875 -6.347656 7.53125 -5.765625 C 7.851562 -5.179688 8.015625 -4.519531 8.015625 -3.78125 Z M 4.34375 -6.734375 C 3.625 -6.734375 3.015625 -6.5 2.515625 -6.03125 C 2.023438 -5.570312 1.75 -4.96875 1.6875 -4.21875 L 7.03125 -4.21875 C 6.96875 -4.96875 6.6875 -5.570312 6.1875 -6.03125 C 5.695312 -6.5 5.082031 -6.734375 4.34375 -6.734375 Z M 4.34375 -6.734375 "/></g></g></g><g fill="#8dc63f" fill-opacity="1"><g transform="translate(3508.942804, 558.13032)"><g/></g></g><g fill="#8dc63f" fill-opacity="1"><g transform="translate(3512.706486, 558.13032)"><g><path d="M 4.515625 0.078125 C 3.785156 0.078125 3.128906 -0.0859375 2.546875 -0.421875 C 1.960938 -0.753906 1.5 -1.210938 1.15625 -1.796875 C 0.820312 -2.378906 0.65625 -3.039062 0.65625 -3.78125 C 0.65625 -4.507812 0.820312 -5.164062 1.15625 -5.75 C 1.5 -6.34375 1.960938 -6.800781 2.546875 -7.125 C 3.128906 -7.445312 3.785156 -7.609375 4.515625 -7.609375 C 5.234375 -7.609375 5.882812 -7.445312 6.46875 -7.125 C 7.0625 -6.800781 7.519531 -6.34375 7.84375 -5.75 C 8.175781 -5.164062 8.34375 -4.507812 8.34375 -3.78125 C 8.34375 -3.039062 8.175781 -2.378906 7.84375 -1.796875 C 7.519531 -1.210938 7.0625 -0.753906 6.46875 -0.421875 C 5.882812 -0.0859375 5.234375 0.078125 4.515625 0.078125 Z M 4.515625 -0.828125 C 5.046875 -0.828125 5.523438 -0.945312 5.953125 -1.1875 C 6.378906 -1.4375 6.710938 -1.785156 6.953125 -2.234375 C 7.191406 -2.691406 7.3125 -3.207031 7.3125 -3.78125 C 7.3125 -4.351562 7.191406 -4.863281 6.953125 -5.3125 C 6.710938 -5.757812 6.378906 -6.101562 5.953125 -6.34375 C 5.523438 -6.59375 5.046875 -6.71875 4.515625 -6.71875 C 3.972656 -6.71875 3.488281 -6.59375 3.0625 -6.34375 C 2.632812 -6.101562 2.296875 -5.757812 2.046875 -5.3125 C 1.804688 -4.863281 1.6875 -4.351562 1.6875 -3.78125 C 1.6875 -3.207031 1.804688 -2.691406 2.046875 -2.234375 C 2.296875 -1.785156 2.632812 -1.4375 3.0625 -1.1875 C 3.488281 -0.945312 3.972656 -0.828125 4.515625 -0.828125 Z M 4.515625 -0.828125 "/></g></g></g><g fill="#8dc63f" fill-opacity="1"><g transform="translate(3521.713462, 558.13032)"><g><path d="M 8.234375 -7.546875 L 8.234375 0 L 7.25 0 L 7.25 -1.375 C 6.976562 -0.914062 6.609375 -0.554688 6.140625 -0.296875 C 5.671875 -0.046875 5.132812 0.078125 4.53125 0.078125 C 3.550781 0.078125 2.773438 -0.195312 2.203125 -0.75 C 1.628906 -1.300781 1.34375 -2.109375 1.34375 -3.171875 L 1.34375 -7.546875 L 2.375 -7.546875 L 2.375 -3.28125 C 2.375 -2.476562 2.566406 -1.867188 2.953125 -1.453125 C 3.347656 -1.046875 3.910156 -0.84375 4.640625 -0.84375 C 5.429688 -0.84375 6.054688 -1.082031 6.515625 -1.5625 C 6.972656 -2.050781 7.203125 -2.726562 7.203125 -3.59375 L 7.203125 -7.546875 Z M 8.234375 -7.546875 "/></g></g></g><g fill="#8dc63f" fill-opacity="1"><g transform="translate(3531.381229, 558.13032)"><g><path d="M 5.40625 -0.453125 C 5.207031 -0.285156 4.96875 -0.15625 4.6875 -0.0625 C 4.40625 0.03125 4.113281 0.078125 3.8125 0.078125 C 3.101562 0.078125 2.554688 -0.113281 2.171875 -0.5 C 1.785156 -0.882812 1.59375 -1.425781 1.59375 -2.125 L 1.59375 -6.6875 L 0.25 -6.6875 L 0.25 -7.546875 L 1.59375 -7.546875 L 1.59375 -9.203125 L 2.609375 -9.203125 L 2.609375 -7.546875 L 4.90625 -7.546875 L 4.90625 -6.6875 L 2.609375 -6.6875 L 2.609375 -2.1875 C 2.609375 -1.726562 2.71875 -1.378906 2.9375 -1.140625 C 3.164062 -0.910156 3.492188 -0.796875 3.921875 -0.796875 C 4.128906 -0.796875 4.332031 -0.828125 4.53125 -0.890625 C 4.726562 -0.960938 4.898438 -1.0625 5.046875 -1.1875 Z M 5.40625 -0.453125 "/></g></g></g><g fill="#8dc63f" fill-opacity="1"><g transform="translate(3537.213491, 558.13032)"><g/></g></g><g fill="#8dc63f" fill-opacity="1"><g transform="translate(3540.977173, 558.13032)"><g><path d="M 5.265625 -7.609375 C 6.210938 -7.609375 6.96875 -7.332031 7.53125 -6.78125 C 8.09375 -6.226562 8.375 -5.425781 8.375 -4.375 L 8.375 0 L 7.359375 0 L 7.359375 -4.28125 C 7.359375 -5.0625 7.160156 -5.65625 6.765625 -6.0625 C 6.367188 -6.476562 5.804688 -6.6875 5.078125 -6.6875 C 4.265625 -6.6875 3.617188 -6.441406 3.140625 -5.953125 C 2.671875 -5.472656 2.4375 -4.8125 2.4375 -3.96875 L 2.4375 0 L 1.421875 0 L 1.421875 -10.65625 L 2.4375 -10.65625 L 2.4375 -6.234375 C 2.71875 -6.671875 3.101562 -7.007812 3.59375 -7.25 C 4.082031 -7.488281 4.640625 -7.609375 5.265625 -7.609375 Z M 5.265625 -7.609375 "/></g></g></g><g fill="#8dc63f" fill-opacity="1"><g transform="translate(3550.731135, 558.13032)"><g><path d="M 8 -3.453125 L 1.6875 -3.453125 C 1.738281 -2.671875 2.035156 -2.035156 2.578125 -1.546875 C 3.128906 -1.066406 3.820312 -0.828125 4.65625 -0.828125 C 5.125 -0.828125 5.550781 -0.910156 5.9375 -1.078125 C 6.332031 -1.242188 6.675781 -1.492188 6.96875 -1.828125 L 7.53125 -1.15625 C 7.195312 -0.757812 6.78125 -0.453125 6.28125 -0.234375 C 5.78125 -0.0234375 5.226562 0.078125 4.625 0.078125 C 3.84375 0.078125 3.15625 -0.0859375 2.5625 -0.421875 C 1.96875 -0.753906 1.5 -1.210938 1.15625 -1.796875 C 0.820312 -2.378906 0.65625 -3.039062 0.65625 -3.78125 C 0.65625 -4.507812 0.816406 -5.164062 1.140625 -5.75 C 1.460938 -6.34375 1.898438 -6.800781 2.453125 -7.125 C 3.015625 -7.445312 3.644531 -7.609375 4.34375 -7.609375 C 5.050781 -7.609375 5.679688 -7.445312 6.234375 -7.125 C 6.785156 -6.800781 7.21875 -6.347656 7.53125 -5.765625 C 7.851562 -5.179688 8.015625 -4.519531 8.015625 -3.78125 Z M 4.34375 -6.734375 C 3.625 -6.734375 3.015625 -6.5 2.515625 -6.03125 C 2.023438 -5.570312 1.75 -4.96875 1.6875 -4.21875 L 7.03125 -4.21875 C 6.96875 -4.96875 6.6875 -5.570312 6.1875 -6.03125 C 5.695312 -6.5 5.082031 -6.734375 4.34375 -6.734375 Z M 4.34375 -6.734375 "/></g></g></g><g fill="#8dc63f" fill-opacity="1"><g transform="translate(3559.407704, 558.13032)"><g><path d="M 2.390625 -6.078125 C 2.628906 -6.578125 2.984375 -6.957031 3.453125 -7.21875 C 3.929688 -7.476562 4.523438 -7.609375 5.234375 -7.609375 L 5.234375 -6.625 L 4.984375 -6.640625 C 4.191406 -6.640625 3.566406 -6.394531 3.109375 -5.90625 C 2.660156 -5.414062 2.4375 -4.726562 2.4375 -3.84375 L 2.4375 0 L 1.421875 0 L 1.421875 -7.546875 L 2.390625 -7.546875 Z M 2.390625 -6.078125 "/></g></g></g><g fill="#8dc63f" fill-opacity="1"><g transform="translate(3564.98137, 558.13032)"><g><path d="M 8 -3.453125 L 1.6875 -3.453125 C 1.738281 -2.671875 2.035156 -2.035156 2.578125 -1.546875 C 3.128906 -1.066406 3.820312 -0.828125 4.65625 -0.828125 C 5.125 -0.828125 5.550781 -0.910156 5.9375 -1.078125 C 6.332031 -1.242188 6.675781 -1.492188 6.96875 -1.828125 L 7.53125 -1.15625 C 7.195312 -0.757812 6.78125 -0.453125 6.28125 -0.234375 C 5.78125 -0.0234375 5.226562 0.078125 4.625 0.078125 C 3.84375 0.078125 3.15625 -0.0859375 2.5625 -0.421875 C 1.96875 -0.753906 1.5 -1.210938 1.15625 -1.796875 C 0.820312 -2.378906 0.65625 -3.039062 0.65625 -3.78125 C 0.65625 -4.507812 0.816406 -5.164062 1.140625 -5.75 C 1.460938 -6.34375 1.898438 -6.800781 2.453125 -7.125 C 3.015625 -7.445312 3.644531 -7.609375 4.34375 -7.609375 C 5.050781 -7.609375 5.679688 -7.445312 6.234375 -7.125 C 6.785156 -6.800781 7.21875 -6.347656 7.53125 -5.765625 C 7.851562 -5.179688 8.015625 -4.519531 8.015625 -3.78125 Z M 4.34375 -6.734375 C 3.625 -6.734375 3.015625 -6.5 2.515625 -6.03125 C 2.023438 -5.570312 1.75 -4.96875 1.6875 -4.21875 L 7.03125 -4.21875 C 6.96875 -4.96875 6.6875 -5.570312 6.1875 -6.03125 C 5.695312 -6.5 5.082031 -6.734375 4.34375 -6.734375 Z M 4.34375 -6.734375 "/></g></g></g><g fill="#8dc63f" fill-opacity="1"><g transform="translate(3573.571745, 558.13032)"><g><path d="M 0 0 L 7.1875 0 L 7.1875 0.6875 L 0 0.6875 Z M 0 0 "/></g></g></g></svg>