<svg version="1.2" preserveAspectRatio="xMidYMid meet" viewBox="0 0 450 29.609999160000005" zoomAndPan="magnify" xmlns:xlink="http://www.w3.org/1999/xlink" xmlns="http://www.w3.org/2000/svg" style="max-height: 500px" width="450" height="29.609999160000005"><defs><clipPath id="c161fd257a"><path d="M 0.320312 0 L 91 0 L 91 18 L 0.320312 18 Z M 0.320312 0"/></clipPath><clipPath id="2ae95bebd1"><path d="M 0.320312 0 L 449 0 L 449 27.664062 L 0.320312 27.664062 Z M 0.320312 0"/></clipPath></defs><g id="21f10f57ad"><g clip-path="url(#c161fd257a)" clip-rule="nonzero"><path d="M -1.488281 17.773438 L 90.378906 0.0117188 L -1.488281 0.0117188 Z M -1.488281 17.773438" style="stroke:none;fill-rule:evenodd;fill:#369c2a;fill-opacity:1;"/></g><path d="M 448.886719 17.773438 L 357.035156 0.0117188 L 448.886719 0.0117188 Z M 448.886719 17.773438" style="stroke:none;fill-rule:evenodd;fill:#369c2a;fill-opacity:1;"/><g clip-path="url(#2ae95bebd1)" clip-rule="nonzero"><path d="M 448.886719 0.0117188 L 357.035156 0.0117188 L 223.707031 8.59375 L 90.378906 0.0117188 L -1.488281 0.0117188 L 223.707031 27.664062 Z M 448.886719 0.0117188" style="stroke:none;fill-rule:evenodd;fill:#8dc63f;fill-opacity:1;"/></g><path d="M 223.707031 8.613281 L 255 7.234375 L 357.136719 0.0117188 L 90.261719 0.0117188 L 192.414062 7.234375 Z M 223.707031 8.613281" style="stroke:none;fill-rule:evenodd;fill:#369c2a;fill-opacity:1;"/></g></svg>