<svg version="1.2" preserveAspectRatio="xMidYMid meet" viewBox="0 0 449.294670846395 69.79499802000001" zoomAndPan="magnify" xmlns:xlink="http://www.w3.org/1999/xlink" xmlns="http://www.w3.org/2000/svg" style="max-height: 500px" width="449.294670846395" height="69.79499802000001"><defs><clipPath id="8e27c910f8"><path d="M 0.320312 4 L 315 4 L 315 72.832031 L 0.320312 72.832031 Z M 0.320312 4"/></clipPath><clipPath id="a8212f930c"><path d="M 0.320312 0 L 449.679688 0 L 449.679688 72.832031 L 0.320312 72.832031 Z M 0.320312 0"/></clipPath><clipPath id="3c8dbce0bd"><path d="M 135 4 L 449.679688 4 L 449.679688 72.832031 L 135 72.832031 Z M 135 4"/></clipPath></defs><g id="07d79cbcf5"><g clip-path="url(#8e27c910f8)" clip-rule="nonzero"><path d="M 0.320312 4.195312 L 0.320312 72.832031 L 314.96875 72.832031 C 278.476562 69.453125 242.191406 64.566406 206.109375 58.164062 C 136.0625 45.710938 67.464844 27.722656 0.320312 4.195312 Z M 0.320312 4.195312" style="stroke:none;fill-rule:nonzero;fill:#8dc63f;fill-opacity:1;"/></g><g clip-path="url(#a8212f930c)" clip-rule="nonzero"><path d="M 207.15625 52.265625 C 283.167969 65.746094 359.769531 72.484375 436.96875 72.488281 C 441.207031 72.488281 445.445312 72.46875 449.679688 72.425781 L 449.679688 -2.058594 C 412.234375 5.816406 374.476562 11.707031 336.410156 15.613281 C 298.339844 19.515625 260.175781 21.414062 221.90625 21.308594 C 147.472656 21.097656 73.828125 13.351562 0.976562 -1.921875 C 68.238281 21.722656 136.964844 39.785156 207.15625 52.265625 Z M 207.15625 52.265625" style="stroke:none;fill-rule:nonzero;fill:#369c2a;fill-opacity:1;"/></g><g clip-path="url(#3c8dbce0bd)" clip-rule="nonzero"><path d="M 449.679688 4.195312 L 449.679688 72.832031 L 135.03125 72.832031 C 171.523438 69.453125 207.808594 64.566406 243.890625 58.164062 C 313.9375 45.710938 382.535156 27.722656 449.679688 4.195312 Z M 449.679688 4.195312" style="stroke:none;fill-rule:nonzero;fill:#ffffff;fill-opacity:1;"/></g></g></svg>