<svg version="1.2" preserveAspectRatio="xMidYMid meet" viewBox="0 0 450 107.15999696" zoomAndPan="magnify" xmlns:xlink="http://www.w3.org/1999/xlink" xmlns="http://www.w3.org/2000/svg" style="max-height: 500px" width="450" height="107.15999696"><defs><clipPath id="dd69b20b87"><path d="M 0.320312 34 L 449.679688 34 L 449.679688 114.585938 L 0.320312 114.585938 Z M 0.320312 34"/></clipPath><clipPath id="d90883e6c8"><path d="M 0.320312 24 L 449.679688 24 L 449.679688 65 L 0.320312 65 Z M 0.320312 24"/></clipPath><clipPath id="5a2208fbdf"><path d="M 158 46 L 449.679688 46 L 449.679688 77 L 158 77 Z M 158 46"/></clipPath><clipPath id="53cee06afb"><path d="M 159 11 L 449.679688 11 L 449.679688 47 L 159 47 Z M 159 11"/></clipPath><clipPath id="dd748a23eb"><path d="M 0.320312 0 L 233 0 L 233 35 L 0.320312 35 Z M 0.320312 0"/></clipPath></defs><g id="fb1cb81cb8"><g clip-path="url(#dd69b20b87)" clip-rule="nonzero"><path d="M 449.679688 34.097656 C 449.679688 34.097656 359.71875 59.171875 225 59.171875 C 90.28125 59.171875 0.320312 34.097656 0.320312 34.097656 L 0.320312 114.175781 L 449.679688 114.175781 Z M 449.679688 34.097656" style="stroke:none;fill-rule:nonzero;fill:#ffffff;fill-opacity:1;"/></g><g clip-path="url(#d90883e6c8)" clip-rule="nonzero"><path d="M 0.320312 43.355469 C 1.925781 43.742188 3.464844 44.105469 5.078125 44.460938 C 7.433594 45.015625 9.777344 45.5 12.128906 46.003906 C 14.476562 46.507812 16.824219 46.96875 19.175781 47.4375 C 21.523438 47.902344 23.867188 48.378906 26.214844 48.785156 L 33.265625 50.078125 C 35.617188 50.527344 37.972656 50.875 40.320312 51.273438 L 47.378906 52.445312 L 54.449219 53.511719 C 73.300781 56.328125 92.199219 58.589844 111.144531 60.300781 C 149.023438 63.640625 186.976562 65.03125 225 64.476562 C 262.957031 63.8125 300.777344 61.207031 338.464844 56.65625 C 357.269531 54.320312 375.996094 51.460938 394.632812 48.082031 L 401.625 46.769531 L 408.589844 45.382812 C 410.910156 44.910156 413.238281 44.484375 415.550781 43.96875 L 422.496094 42.460938 C 431.601562 40.433594 440.648438 38.300781 449.679688 35.761719 L 449.679688 32.4375 L 449.230469 32.539062 C 440.15625 34.785156 430.890625 36.660156 421.648438 38.382812 L 414.703125 39.652344 C 412.390625 40.070312 410.0625 40.441406 407.742188 40.835938 L 400.773438 41.988281 L 393.789062 43.046875 C 375.175781 45.828125 356.488281 48.070312 337.730469 49.769531 C 300.222656 53.0625 262.648438 54.429688 225 53.871094 C 187.421875 53.203125 149.972656 50.613281 112.660156 46.105469 C 94.050781 43.789062 75.53125 40.957031 57.105469 37.613281 L 50.199219 36.339844 L 43.324219 34.964844 C 41.035156 34.515625 38.738281 34.066406 36.457031 33.570312 L 29.617188 32.085938 C 27.335938 31.605469 25.070312 31.066406 22.800781 30.539062 C 20.53125 30.015625 18.292969 29.496094 16.046875 28.925781 C 13.800781 28.355469 11.53125 27.820312 9.304688 27.222656 C 7.082031 26.625 4.8125 26.03125 2.75 25.425781 L 0.320312 24.753906 Z M 0.320312 43.355469" style="stroke:none;fill-rule:nonzero;fill:#8dc63f;fill-opacity:1;"/></g><g clip-path="url(#5a2208fbdf)" clip-rule="nonzero"><path d="M 158.917969 70.550781 C 177.726562 72.320312 196.609375 72.851562 215.464844 72.949219 C 234.320312 73.050781 253.183594 72.5 272.003906 71.46875 C 309.628906 69.292969 347.046875 65.199219 384.253906 59.191406 C 406.199219 55.578125 428.011719 51.308594 449.679688 46.375 L 449.679688 58.222656 C 428.382812 62.117188 406.996094 65.410156 385.519531 68.105469 C 347.875 72.664062 310.097656 75.289062 272.183594 75.980469 C 253.257812 76.25 234.335938 75.996094 215.429688 75.214844 C 196.527344 74.34375 177.644531 73.066406 158.917969 70.550781 Z M 158.917969 70.550781" style="stroke:none;fill-rule:nonzero;fill:#8dc63f;fill-opacity:1;"/></g><g clip-path="url(#53cee06afb)" clip-rule="nonzero"><path d="M 159.984375 42.546875 C 178.832031 43.894531 197.734375 43.96875 216.570312 43.625 C 235.40625 43.285156 254.273438 42.277344 273.0625 40.820312 C 310.621094 37.765625 347.925781 32.796875 384.972656 25.921875 C 404.183594 22.308594 423.265625 18.171875 442.222656 13.519531 C 444.710938 12.917969 447.199219 12.296875 449.679688 11.675781 L 449.679688 23.546875 C 447.191406 24.070312 444.710938 24.574219 442.222656 25.074219 C 423.71875 28.777344 405.132812 32.011719 386.464844 34.773438 C 348.929688 40.210938 311.21875 43.71875 273.324219 45.289062 C 254.414062 46 235.488281 46.222656 216.570312 45.855469 C 197.652344 45.484375 178.769531 44.625 159.984375 42.546875 Z M 159.984375 42.546875" style="stroke:none;fill-rule:nonzero;fill:#8dc63f;fill-opacity:1;"/></g><g clip-path="url(#dd748a23eb)" clip-rule="nonzero"><path d="M 0.320312 9.675781 L 0.320312 0.0390625 C 12.234375 3.441406 24.21875 6.585938 36.269531 9.472656 C 39.660156 10.296875 43.0625 11.101562 46.46875 11.882812 C 77.050781 18.804688 107.90625 24.144531 139.035156 27.90625 C 154.613281 29.730469 170.242188 31.152344 185.914062 32.078125 C 201.589844 33.003906 217.28125 33.515625 232.988281 33.019531 C 217.3125 34.136719 201.566406 34.214844 185.839844 33.945312 C 170.109375 33.675781 154.382812 32.839844 138.65625 31.628906 C 107.214844 29.09375 75.984375 24.957031 44.96875 19.226562 C 42.074219 18.675781 39.171875 18.121094 36.285156 17.539062 C 24.246094 15.160156 12.257812 12.539062 0.320312 9.675781 Z M 0.320312 9.675781" style="stroke:none;fill-rule:nonzero;fill:#8dc63f;fill-opacity:1;"/></g></g></svg>